<svg xmlns="http://www.w3.org/2000/svg" viewBox="0 0 72 72" width="72" height="72"><defs><style>.cls-1{fill:#f5f5f5}.cls-2{fill:#2d2e2c}.cls-3{fill:#46433b}.cls-4{fill:#5f5b58}.cls-5{fill:#a37078}.cls-6{fill:#895d38}.cls-7{fill:#92929d}.cls-8{fill:#a87b4f}.cls-9{fill:#e9e7e5}.cls-10{fill:#d9a894}.cls-11{fill:#807e7e}.cls-12{fill:#a8beb5}.cls-13{fill:#cbb9ac}.cls-14{fill:#57737d}.cls-15{fill:#767574}.cls-16{fill:#c7cbc9}.cls-17{fill:#dfe1de}.cls-18{fill:#d4d7d5}.cls-19{fill:#d38d71}.cls-20{fill:#efe1cf}.cls-21{fill:#a59583}.cls-22{fill:#4f4e46}.cls-23{fill:#a5a98d}.cls-24{fill:#e4c7ac}.cls-25{fill:#e8d4c3}.cls-26{fill:#282824}.cls-27{fill:#6a6b6b}.cls-28{fill:#eeeceb}</style></defs><path id="Layer_2" d="M0 0h72v72H0z" class="cls-1"/><g id="Layer_3"><path d="M37.33 38.5c3.22 0 3.23-5 0-5s-3.22 5 0 5z" class="cls-2"/><path d="M36.33 36.17c3.22 0 3.23-5 0-5s-3.22 5 0 5z" class="cls-2"/><path d="M33.92 34.25c3.21 0 3.22-5 0-5s-3.23 5 0 5z" class="cls-2"/><path d="M32.92 30.92c3.21 0 3.22-5 0-5s-3.23 5 0 5zm1.08-5.5c3.22 0 3.22-5 0-5s-3.22 5 0 5z" class="cls-2"/><path d="M34.25 21.42c3.22 0 3.22-5 0-5s-3.22 5 0 5zm-1.67 6.41c3.22 0 3.23-5 0-5s-3.22 5 0 5zm13.92 8.5c3.22 0 3.22-5 0-5s-3.22 5 0 5z" class="cls-2"/><path d="M46 37.67c3.22 0 3.22-5 0-5s-3.22 5 0 5z" class="cls-2"/><path d="M43.32 34.65a4.44 4.44 0 0 0-.56.75 2.5 2.5 0 1 0 4.32 2.53l-.23.25a2.66 2.66 0 0 0 .73-1.76 2.5 2.5 0 0 0-4.26-1.77z" class="cls-2"/><path d="M43.25 40.75c3.22 0 3.22-5 0-5s-3.22 5 0 5zm-.67 17.33c3.22 0 3.23-5 0-5s-3.22 5 0 5z" class="cls-2"/><path d="M44 57.08c3.22 0 3.22-5 0-5s-3.22 5 0 5z" class="cls-2"/><path d="M45.17 56c3.21 0 3.22-5 0-5s-3.23 5 0 5z" class="cls-2"/><path d="M48.66 52.66c.59-2.33 1-4.62 1.44-7a35.05 35.05 0 0 0 .15-4.58c0-.69.8-2.93 0-1.16 1.33-2.91-3-5.45-4.32-2.53-.9 2-.48 4.18-.64 6.37a44.16 44.16 0 0 1-1.44 7.57c-.79 3.12 4 4.45 4.82 1.32z" class="cls-2"/><path d="M50.17 37.17a40.08 40.08 0 0 0-.21-4.9 41.39 41.39 0 0 1 .12-4.85c0-3.22-5-3.23-5 0a46 46 0 0 0-.08 5.25 44 44 0 0 1 .21 4.5c0 3.21 5 3.22 5 0zM39.09 57.09c.09-.5-.1.28-.15.41-.1.29-.18.59-.27.88-.23.65-.45 1.29-.65 1.95a6.78 6.78 0 0 1-.87 2.49 2.56 2.56 0 0 0 0 3.53 2.51 2.51 0 0 0 3.53 0 10.37 10.37 0 0 0 2-4.28c.25-1.14 1-2.44 1.2-3.66a2.56 2.56 0 0 0-1.75-3.07 2.52 2.52 0 0 0-3.07 1.75zM31 17.32a7.44 7.44 0 0 0-.76 1.59c0 .09-.37.76-.14.33-.11.22-.23.43-.35.64-.26.46-.6.88-.89 1.32.39-.59-.71 1-.4.53-.11.16-.19.34-.3.51-1.66 2.76 2.66 5.28 4.32 2.52.06-.1.3-.67 0-.16a7.46 7.46 0 0 1 .61-.78c.31-.44.65-.92.95-1.41A13 13 0 0 0 34.8 21c.29-.69-.25.57.19-.45l.25-.59c-.09.2-.06.18.09-.07A2.5 2.5 0 1 0 31 17.32z" class="cls-2"/><path d="M27.08 24.92s0 .5.05.27.31-.45-.1.06a5.1 5.1 0 0 0-.61 1.17 22.39 22.39 0 0 0-1.33 3.25c-.9 3.09 3.92 4.42 4.82 1.33.31-1.05.88-1.94 1.25-3l-.23.28.39-.5a5.46 5.46 0 0 0 .41-.75 4.94 4.94 0 0 0 .35-2.15c0-3.22-5-3.23-5 0z" class="cls-2"/><path d="M25 31.58c.05-.61-.25.51 0-.18 0-.11-.28.9-.33 1 0-.06.13-.24-.05 0s-.48.51-.69.77a10.69 10.69 0 0 0-1.2 1.65 5.08 5.08 0 0 0-.49 2.24 2.5 2.5 0 0 0 5 0V37c0-.42.05-.44-.09.11 0 0 .32-.43.41-.54A16.93 16.93 0 0 0 28.94 35a4 4 0 0 0 .47-1c0-.12.09-.82 0-.28a20.07 20.07 0 0 0 .59-2.14 2.52 2.52 0 0 0-2.5-2.5 2.55 2.55 0 0 0-2.5 2.5z" class="cls-2"/><path d="M22.34 36.75a15.21 15.21 0 0 0-.42 2.84l.74-1.77c-1.18 1.46-2.53 2.79-2.28 4.9.05.43.28.79.34 1.19-.12-.81-.14.76-.14.66a5.22 5.22 0 0 0 .59 2.86c1.64 2.77 6 .26 4.32-2.53.24.41.09-.4.09-.58v-1.06a3.21 3.21 0 0 0-.31-1.34q-.22-.69-.12.18c-.09.55 0 .63.23.24.39-.14.79-.92 1-1.24a7.7 7.7 0 0 0 .77-3 2.57 2.57 0 0 0-1.74-3.1 2.51 2.51 0 0 0-3.07 1.74z" class="cls-2"/><path d="M24.08 41.17c3.22 0 3.23-5 0-5s-3.22 5 0 5z" class="cls-2"/><path d="M23.75 42.33c3.22 0 3.22-5 0-5s-3.22 5 0 5z" class="cls-2"/><path d="M25.83 40.5c-.56 1.38 0 .27.23-.13a7.93 7.93 0 0 0 .58-1.26c.26-.68.5-1.28.82-1.94A25.32 25.32 0 0 1 30 32.76a2.53 2.53 0 0 0-.89-3.42 2.57 2.57 0 0 0-3.43.9 26.31 26.31 0 0 0-2.6 4.56c-.4.86-.73 1.72-1.1 2.59-.26.61-.68 1.08-1 1.78a2.51 2.51 0 0 0 1.74 3.07 2.55 2.55 0 0 0 3.08-1.74zm9.58-21.24c1.38-2.06 2-4.59 3.33-6.66 1.79-2.69-2.54-5.2-4.32-2.53-1.38 2.08-2 4.61-3.33 6.67-1.79 2.68 2.53 5.18 4.32 2.52z" class="cls-2"/><path d="M36.08 13.42c3.22 0 3.23-5 0-5s-3.22 5 0 5z" class="cls-2"/><path d="M37.26 17.93c-.35.82.07-.09.14-.24s.25-.4.36-.61.15-.33.23-.5c-.27.61.13-.12.21-.23.25-.35.54-.66.79-1a4.08 4.08 0 0 0 .56-1.28c.26-1.26-1.67-1.8-1.93-.53a2.2 2.2 0 0 0-.06.37c.07-.22 0-.18-.06.1s-.2.28-.31.42c-.28.34-.56.67-.81 1a12 12 0 0 0-1.05 1.94 1 1 0 0 0 .7 1.23 1 1 0 0 0 1.23-.7z" class="cls-2"/><path d="M34.89 18.34a8.58 8.58 0 0 0-.2 2 4.19 4.19 0 0 0 .31 1.01 3.38 3.38 0 0 1 .1.69 1 1 0 0 0 1 1 1 1 0 0 0 1-1v-.66a8 8 0 0 0-.3-1 3.44 3.44 0 0 1 .09-1.53 1 1 0 0 0-.7-1.23 1 1 0 0 0-1.23.7z" class="cls-2"/><path d="M37 20.8a4.11 4.11 0 0 1 .06-1.16c.06-.44 0-.89.08-1.33a1 1 0 0 0-2 0c-.06.47 0 .94-.1 1.41a5.43 5.43 0 0 0 0 1.61 1 1 0 0 0 1.23.7A1 1 0 0 0 37 20.8zm7.71 8.2a7.91 7.91 0 0 1-.15 1.75 7.2 7.2 0 0 0-.18 1.54 1 1 0 0 0 2 0 7.15 7.15 0 0 1 .21-1.45 9.44 9.44 0 0 0 .12-1.84 1 1 0 0 0-2 0z" class="cls-2"/><path d="M45.92 28.87a1 1 0 0 0 0-2 1 1 0 0 0 0 2z" class="cls-2"/><path d="M44.88 28.12c-.09.72-.51 1.37-.62 2.08-.06.41 0 .8 0 1.21a9.1 9.1 0 0 0-.07 1.05c0 1.28 2 1.29 2 0a6 6 0 0 1 .07-.84 6.29 6.29 0 0 1 .06-1.37 14 14 0 0 0 .58-2.13c.15-1.27-1.85-1.26-2 0zm-5.21-14.79a13.39 13.39 0 0 0-.1-2.28c0-.24-.1-.49-.15-.73a4 4 0 0 0-.12-.84 1 1 0 0 0-1.23-.69 1 1 0 0 0-.7 1.23 4.17 4.17 0 0 1 .08.63c.06.3.11.46.15.74a12.54 12.54 0 0 1 .07 1.94 1 1 0 0 0 2 0z" class="cls-2"/><path d="M37.54 10c0 .7.22 1.36.25 2.05a9.31 9.31 0 0 1-.29 1.83c-.07.54.51 1 1 1a1 1 0 0 0 1-1c0 .26-.07.3 0 0a4.11 4.11 0 0 0 .17-.6 5.29 5.29 0 0 0 .09-1.12c0-.73-.28-1.45-.26-2.17.05-1.29-1.95-1.28-2 0z" class="cls-2"/><path d="M38.75 12a1 1 0 0 0 0-2 1 1 0 0 0 0 2z" class="cls-2"/><path d="M38.75 11.75a1 1 0 0 0 0-2 1 1 0 0 0 0 2zm-4.33 1.85c.46-1.22.84-2.48 1.33-3.68a18.25 18.25 0 0 0 .8-2.25c.16-.61 0 0 .06-.24s.45-1 .23-.86l-1.21-.15c-.19-.22.08.29.1.39a9.69 9.69 0 0 1 .06 1.09 3.77 3.77 0 0 0 .3 1.48c.52 1.18 2.24.16 1.73-1-.24-.56 0-1.42-.1-2A3.31 3.31 0 0 0 37 5a1 1 0 0 0-1.21-.15c-1.11.77-1.28 2.7-1.74 3.86-.57 1.45-1.05 2.91-1.6 4.36-.45 1.2 1.48 1.72 1.93.53zm8.21 22.13c-.08-.06-.14-.64-.18-.73a4.3 4.3 0 0 0-.59-.87 13 13 0 0 1-1.33-1.85A26.13 26.13 0 0 0 39 30.14a7.07 7.07 0 0 1-1.07-1.69A1 1 0 0 0 36 29c.44 1.66 2 3 2.89 4.46.46.81 1.19 1.43 1.64 2.24.32.59.41 1.3 1.09 1.78 1.05.74 2.05-1 1-1.73z" class="cls-2"/><path d="M35.16 22.41a29.71 29.71 0 0 0 .66 5.95c.25 1.26 2.18.73 1.93-.53a26.77 26.77 0 0 1-.59-5.42 1 1 0 0 0-2 0zm1.7-4.29a1.47 1.47 0 0 0 .88-.74c.11-.18.22-.35.32-.54s.08-.16.13-.24c-.11.09-.12.11 0 0a2.78 2.78 0 0 0 .77-.83 3 3 0 0 0 .35-1.16 1 1 0 0 0-1-1 1 1 0 0 0-1 1c0-.12 0 .06-.05.07a1.45 1.45 0 0 1-.11.26c.1-.16.05-.08-.08 0a1.87 1.87 0 0 0-.34.29c-.29.31-.51.94-.72 1.14l.44-.25h-.09a1 1 0 0 0 .53 1.93z" class="cls-2"/><path d="M24.5 53.83a4.56 4.56 0 0 0 0 .64c0 .22 0 .16.05-.17l-.09.66a7.57 7.57 0 0 0 0 1.26s.1 1 .05.51c.1.69.13.89.07.58 0-.12 0-.11 0 0a3.94 3.94 0 0 0 .12 1.53 2.58 2.58 0 0 0 3.08 1.75 2.52 2.52 0 0 0 1.74-3.08c.06.16 0 .46.05.15a2.81 2.81 0 0 0 0-.58c0-.11-.09-.86-.07-.7 0 .4-.06-1-.06-.47v-.49c0-.16-.09-.25-.06 0a15 15 0 0 1 .1-1.61 2.5 2.5 0 0 0-5 0z" class="cls-3"/><path d="M25.82 60.64a13 13 0 0 1 1.57 1.21 11.29 11.29 0 0 0 1 1.68c.15.16 1 1 .56.45s.54.86.38.66a14.24 14.24 0 0 0 2.23 1.94 10.87 10.87 0 0 0 4.43 2 5.17 5.17 0 0 0 1.86.07 3.9 3.9 0 0 0 1.23-.42c.21-.11 1.28-.81.58-.36 2.7-1.73.2-6.06-2.53-4.32a5.17 5.17 0 0 0-.71.52.82.82 0 0 1 .81-.36c-.1.16-.8-.17-1.1-.28a6 6 0 0 1-2.79-1.78 13.21 13.21 0 0 1-1.74-2.37 8.09 8.09 0 0 0-2.27-2.13c-2.5-2-6.07 1.55-3.53 3.53z" class="cls-3"/><path d="M39 67.12c3.22 0 3.22-5 0-5s-3.22 5 0 5z" class="cls-3"/><path d="M39.33 66.83c3.22 0 3.23-5 0-5s-3.22 5 0 5z" class="cls-3"/><path d="M38.06 8.62A3.48 3.48 0 0 1 38 7.37a2.74 2.74 0 0 0-.21-1c-.22-.6-1.19-.34-1 .26.31.81.06 1.72.4 2.52.26.59 1.12.08.87-.51z" class="cls-2"/><path d="M37.81 6.6a1.51 1.51 0 0 0-.14-.66c-.05-.13-.09-.27-.15-.39-.19-.39.11.31 0-.1a1.06 1.06 0 0 0-.52-.57s-.3-.1-.18 0-.19-.11-.24-.12c-.6-.23-.86.74-.26 1-.33-.12.13.07.2.1 0-.17 0-.17 0 0a.35.35 0 0 0 .06.14c.05.14.11.29.17.43l.09.2v.06c0 .65 1 .65 1 0zm.36 3.05c.55 0 .54.49.6.9 0 .13.1.27.11.39a2.09 2.09 0 0 1-.11.43 3.39 3.39 0 0 0 0 .71.5.5 0 0 0 1 0 8.16 8.16 0 0 0 .12-1.3 5.21 5.21 0 0 0-.21-1.1 1.53 1.53 0 0 0-1.47-1 .5.5 0 0 0 0 1z" class="cls-2"/><path d="M38.88 11.67a7.65 7.65 0 0 1 0 1.07 6.7 6.7 0 0 0-.1 1.09.5.5 0 0 0 1 0 8.19 8.19 0 0 1 .12-1.11 9.2 9.2 0 0 0 0-1.05.5.5 0 0 0-1 0zm-4.56-3.51c-.43.91-.87 1.84-1.24 2.77-.24.6.73.86 1 .27.34-.85.75-1.7 1.14-2.53.28-.58-.58-1.09-.86-.51z" class="cls-2"/><path d="M35.18 8.84a4.48 4.48 0 0 0 .46-1.48A7.7 7.7 0 0 0 36 5.79c0-.64-1-.64-1 0a6.09 6.09 0 0 1-.37 1.31 3.7 3.7 0 0 1-.35 1.23c-.37.53.5 1 .86.51z" class="cls-2"/><path d="M35.18 5.58c-.33 2.23-1.94 4-2.54 6-.26.88-.5 1.69-.82 2.56a8.57 8.57 0 0 0-.82 2.65.5.5 0 0 0 1 0A9.55 9.55 0 0 1 33 14c.34-.79.38-1.59.66-2.35.72-2 2.15-3.67 2.47-5.81.09-.63-.87-.9-1-.26zm10.4 23.71c.05-.47.18-.94.21-1.42a1.43 1.43 0 0 1 .48-1.1c.5-.41-.21-1.11-.71-.71a2.21 2.21 0 0 0-.73 1.36c-.12.6-.19 1.26-.25 1.87s.94.64 1 0zm3.48.24c-.36 1.53.12 3.08.27 4.59.08.81 0 1.62.13 2.43s.55 1.79.18 2.73c-.23.6.74.86 1 .27a3.64 3.64 0 0 0 .12-2.31 19.58 19.58 0 0 1-.36-2.87c-.08-1.53-.72-3-.35-4.57.15-.63-.81-.89-1-.27zm-5.88 27.84c-.21.72-.22 1.45-.39 2.18l-.12.57c-.08.32.12-.21 0 .11s-.34.75-.52 1.12c-.27.58.59 1.09.86.51a9.57 9.57 0 0 0 .76-2c.19-.75.19-1.53.42-2.27s-.78-.88-1-.26z" class="cls-2"/><path d="M42 61.58a6.94 6.94 0 0 1-.57 1.83c-.23.47-.57.88-.77 1.36-.29.73-.29 1.29-1.11 1.6-.59.23-.33 1.19.27 1a2.45 2.45 0 0 0 1.68-1.91 10 10 0 0 1 .82-1.55 7.8 7.8 0 0 0 .64-2c.11-.63-.86-.9-1-.26z" class="cls-2"/><path d="M40.35 66.33l-.5.2a2.34 2.34 0 0 1-.24.09c-.06 0-.28-.06-.13 0-.58-.28-1.08.59-.5.86s1.08 0 1.63-.2.34-1.19-.26-1zM26 60.79a4 4 0 0 1 .87.91 6 6 0 0 0 .48.85c.39.49 1 .74 1.29 1.31s.36.91.88 1.22a10.69 10.69 0 0 0 1.27.73c.58.25 1.09-.61.5-.87a7.56 7.56 0 0 1-1.29-.72c-.45-.34-.61-1.11-1-1.52a5.37 5.37 0 0 1-1.25-1.51 4 4 0 0 0-1-1.11c-.47-.44-1.18.27-.71.71zM20.75 40c0 2.15-.65 3.74-.31 5.89a10 10 0 0 0 1.35 3.38 17 17 0 0 1 2.61 8.41.51.51 0 0 0 .5.5h.1c.64 0 .64-1 0-1 1.42.1-1-6.38-1.43-7.2-.8-1.49-1.85-2.58-2.16-4.3-.35-2 .34-3.68.34-5.69a.5.5 0 0 0-1 0zm18.91-9.29c-.32-1.53-.76-2.91-1-4.6a73.13 73.13 0 0 1-.39-7.55c0-3.21-5-3.22-5 0 0 2.85.22 5.72.48 8.56a15.73 15.73 0 0 0 .73 3.4c-.36-1.14.26 1.22.32 1.52.66 3.15 5.48 1.82 4.82-1.33z" class="cls-2"/><path d="M38.41 19.14A27.25 27.25 0 0 0 40 14.83a5.88 5.88 0 0 0-.49-5.09l.37 1.26a11.36 11.36 0 0 0-.16-1.29A2.52 2.52 0 0 0 36.65 8a2.58 2.58 0 0 0-1.75 3c.17 1.2.67 1.37.23 2.63a19.32 19.32 0 0 1-1 2.94c-1.56 2.82 2.76 5.35 4.32 2.53zm-2.53 13.55a5.13 5.13 0 0 0 .84 2.46c.22.35.46.66.71 1s.18.22 0 0l.45.58c.28.29.65.49.93.78-.28-.3.24.32.26.34a10.11 10.11 0 0 0 1.74 1.39 2.5 2.5 0 0 0 2.52-4.32c-.31-.19-.07 0-.23-.16a4.38 4.38 0 0 1-.39-.36c-.35-.32-.94-.9-1.13-1 .26.18-.33-.3 0 0s-.34-.41-.45-.57c.16.24 0-.05-.07-.14-.27-.42-.24-.7-.15.06a2.58 2.58 0 0 0-2.5-2.5 2.51 2.51 0 0 0-2.5 2.5z" class="cls-2"/><path d="M48.22 35.23a17.25 17.25 0 0 0 .78-4.84l-.74 1.77a4.66 4.66 0 0 0 1-1.81 2.53 2.53 0 0 0 .26-1.09c.25-1-.23-.87-1.44.39l-2.5-2.5c.2 1.75.09 3.64.2 5.4s-.31 3.53-.31 5.33c0 3.21 5 3.22 5 0 0-3.56.52-7.15.11-10.73a2.55 2.55 0 0 0-2.5-2.5c-2.59.08-3.29 2.24-3.64 4.37l.33-.4a2.41 2.41 0 0 0-.64 1.1 6.36 6.36 0 0 0-.16 1.44 8.63 8.63 0 0 1-.48 2.74c-1.16 3 3.67 4.3 4.82 1.33z" class="cls-2"/><path d="M45.62 35.06c0 3.71-1.24 7.27-1.24 11 0 2 .65 6.1-1.7 7.17-2.93 1.33-.39 5.64 2.52 4.32 2.61-1.19 3.85-4.37 4.12-7s-.16-5.18.09-7.74 1.21-5.12 1.21-7.77c0-3.21-5-3.22-5 0z" class="cls-2"/><path d="M39.9 56.77c-.65 1.88-1.22 3.8-1.86 5.59-.8 2.26-1.42 2.08-3.57.93a12 12 0 0 1-3.76-3.19c-.57-.78-1.23-3.41-2.63-3.33-.09 0 .21 1.62.76.7.24-.4-.21-2.1-.25-2.35a14.05 14.05 0 0 0-1.2-4.23c-1-2.16-2.13-4.2-2.39-6.56-.5-4.5 3-7 3.72-11 .54-3.15-4.28-4.5-4.82-1.33-.32 1.85-2.12 4.24-2.84 6a15 15 0 0 0-.93 8.58c.55 3.11 2.69 5.66 3.33 8.74.36 1.79.18 3.42 1.09 5 .29.5 1.78 1.83 1.09.78 2.51 3.85 6.36 8.69 11.78 8.12s6-7.19 7.3-11c1.06-3-3.76-4.35-4.82-1.33z" class="cls-2"/><path d="M28.39 33.52a20.55 20.55 0 0 0 2-2.46 4.5 4.5 0 0 0 .68-1.39 3.81 3.81 0 0 0 .12-1c0-.28-.16-1.32-.08-.6a2.56 2.56 0 0 0-2.5-2.5c-1.22.06-2.66 1.11-2.5 2.5l.12.88a1.15 1.15 0 0 1 .15-.95c-.15.09-.35.55-.46.7a11 11 0 0 1-1.06 1.3 2.5 2.5 0 0 0 3.53 3.54zM38.62 8.06a5.05 5.05 0 0 0-.09-1c-.07-.4 0 .4 0 .51-.06.49 0 .08 0 0a5.66 5.66 0 0 0 .13-.92 2.53 2.53 0 0 0-2.5-2.5 2.56 2.56 0 0 0-2.5 2.5c0-.71.05-.39 0-.17a4.05 4.05 0 0 0-.12.84 4.32 4.32 0 0 0 .09.85c.07.42 0-.66 0-.08a2.5 2.5 0 1 0 5 0z" class="cls-2"/><path d="M33.46 7.59A40.06 40.06 0 0 1 30.53 16c-1.32 3-3.44 6.55-3.94 9.4-.55 3.14 4.26 4.5 4.82 1.33.26-1.47 1.17-2.56 1.8-3.95C34 21 34.7 19.1 35.44 17.3a46.09 46.09 0 0 0 2.85-8.39c.6-3.14-4.22-4.49-4.83-1.32z" class="cls-2"/><path d="M33.08 7.42q.08-.84-.06.33l.13-.66a15.81 15.81 0 0 0-.73 1.49A22.13 22.13 0 0 0 31.25 12c-.11.53-.16 1.08-.24 1.61.1-.68-.52 1.92.1-.15a9.85 9.85 0 0 0-.69 3.6c.16 3.2 5.16 3.22 5 0a9.55 9.55 0 0 1 .49-2.53c.1-.49.21-1.48.42-2.18a18.87 18.87 0 0 1 1.14-2.76 4.86 4.86 0 0 0 .61-2.19c.22-3.22-4.78-3.2-5 0z" class="cls-2"/></g><g id="Layer_1"><path d="M10.87 56.12l.09.07zm.13.1l.06.1z" class="cls-4"/><path d="M45.6 55.59a6.24 6.24 0 0 1-.82.88 16.49 16.49 0 0 1-1.64.93 1.69 1.69 0 0 1-.71.13.44.44 0 0 0-.4.22c-.58 0-.6.07-.62.6 0 .25.1.55-.23.7s-.29.3-.29.53v.12h-.31l-.25.77-.22-.28c-.18.2-.48.39-.49.59 0 .53-.41.77-.73 1a.45.45 0 0 0-.12.53 1.25 1.25 0 0 0 .9.62c.54 0 .54 0 .58.54a.92.92 0 0 0 0 .16l.1.32-.22.22a.34.34 0 0 1 0 .1c-.31.12-.23.32-.11.54s-.23.39.12.46l.22.29a1.82 1.82 0 0 1-.07.25c-.06.17 0 .28.17.31-.11.21-.22.41-.31.62a2.14 2.14 0 0 1-1.74 1.09c0-.2-.12-.39.06-.59a.65.65 0 0 0 .13-.45 1.51 1.51 0 0 1 .23-1h-.53a.83.83 0 0 1 .49-.77l-.48-.93h.53c0 .18 0 .36.41.22l-.4-.23v-.32l.43-.2-1-.43c.05-.21.07-.38.12-.54s-.09-.31-.28-.34v-.57l-.64-.05.39-.34-.17-.63a3.55 3.55 0 0 0 1.85-1.4c.23-.38.38-.82.82-1 .06 0 .09-.14.14-.22a6.31 6.31 0 0 0 .78-2.65c.36-.26.37-.35.07-.57a.07.07 0 0 1 0-.06c.26-.08.42.06.52.29l.64-.34-.31-.4c.16-.27.18-.64.54-.76l.32.65c.26 0 .47-.2.73 0s.34-.07.36-.29 0-.35 0-.53h.32c.21 0 .4-.2.62 0 .06.05.21 0 .31 0-.12.17-.26.33-.37.5s-.49.43-.42.8a3.8 3.8 0 0 1-.81 1.55l.48.19a1.24 1.24 0 0 1 1.31-.83zm-2.07 1.19l.16-.47a1.61 1.61 0 0 0-.36-.13.25.25 0 0 0-.21.08.28.28 0 0 0 0 .23 3.2 3.2 0 0 0 .41.29z" class="cls-5"/><path d="M49.54 32.37v.31a2 2 0 0 0 .08.22c0 .47.07.94.1 1.41a.27.27 0 0 0 0 .42v3.58c0 .25-.07.5-.1.75s0 .44 0 .66-.11.36-.16.53 0 .3-.07.44a.79.79 0 0 1-.49-.7 1.18 1.18 0 0 0-.41-.88 1.89 1.89 0 0 1-.26-.39.69.69 0 0 0 .08-1.09.23.23 0 0 1 .13-.41c.32-.07.35-.32.34-.58s0-.51-.06-.76h-.8l.29-.38h-.76l.26-.75 1-.17-.71-.22-.26-.5.43-.29c-.12-.28-.35-.55 0-.78v-.19c-.12-.21-.29-.19-.5-.15-.89.17-1.45-.29-1.49-1a3.71 3.71 0 0 1-.23-1.58 1.29 1.29 0 0 1 .77-1.07.42.42 0 0 1 .54.1c.21.18.44.33.65.49l.27.45v.78c0 .26 0 .39.28.28.14.53.28.62.81.49h.2c0 .26.06.52.08.77z" class="cls-6"/><path d="M21.34 47.25a4.26 4.26 0 0 1-.34-2 11.06 11.06 0 0 1 .2-2.5 1 1 0 0 0-.13-.72.87.87 0 0 1 0-1c.53 0 .53 0 .64.55a5.77 5.77 0 0 1 .08.58c0 .39.09.78.14 1.16s.19.46.38.59.42.38.28.72a.76.76 0 0 0 0 .37 7.71 7.71 0 0 0 .88 2.67c.29.63.65 1.22.93 1.85s.36 1 .53 1.56c.19.88.38 1.77.58 2.65 0 .07.11.12.17.19a2.08 2.08 0 0 0 .69 1.7v.32l.21.57c-.18 0-.35 0-.42-.26s-.32-.3-.56-.29l-.19-.12-.13-.43c.17-.16.05-.2-.09-.22l-.07-.63a.29.29 0 0 0-.16-.44V54c.16-.11.1-.24.05-.38a6.08 6.08 0 0 0-.9-1.71 7.14 7.14 0 0 1-1-1.67 10.61 10.61 0 0 0-.62-1.37c-.38-.59-.78-1.1-1.15-1.62z" class="cls-7"/><path d="M48.21 29.85l-.27-.45c-.21-.16-.44-.31-.65-.49a.42.42 0 0 0-.54-.1 1.29 1.29 0 0 0-.77 1.07 3.71 3.71 0 0 0 .23 1.58H46l-.4-.46-.37.09c-.35.1-.38.14-.29.48l.06.2c.12.4.12.4-.33.52a9.83 9.83 0 0 1 .22-3.2 21.41 21.41 0 0 1 .84-2.65 1.84 1.84 0 0 1 1.63-1.08 2.22 2.22 0 0 1 1.2.34c.15.07.2.38.3.61l.29-.33a1.9 1.9 0 0 1 .14.43v3.09a2.31 2.31 0 0 0 .23 1.28c.09.14 0 .41 0 .62h-.2c-.53.13-.67 0-.81-.49a11.86 11.86 0 0 0 .19-3.52 1.75 1.75 0 0 0-.48-1.09c-.44-.47-.63-.53-1.18-.2-.3 0-.62-.17-.92.19l.74.47.5-.44a.47.47 0 0 1 .54.14 1.5 1.5 0 0 1 .43 1c0 .5.06 1 .09 1.5v.21c-.25.18-.13.46-.21.68z" class="cls-3"/><path d="M36.58 33.2c.06.08.13.15.2.23l.12.1.11.11.1.12.21.21.11.1a17.11 17.11 0 0 1 2.15 2.19l.61 1c-.15.22-.28.42-.41.63l-.45-.34c-.17.29.06.38.17.52h-.16c-.59.13-.76.48-.51 1 .1.21.21.41.32.62a3.16 3.16 0 0 1-.93-.22 13.23 13.23 0 0 1-1.67-1.13c-.42-.33-.76-.75-1.15-1.12a.36.36 0 0 1-.09-.43.75.75 0 0 0 0-.67 3.18 3.18 0 0 1-.26.47c-.11.13-.25.29-.43.07 0-.08 0-.24-.06-.24-.38 0-.36-.39-.49-.62s-.19-.36 0-.54l.33.41h1.15c0-.3-.37-.39-.23-.67h.11c.34.16.62.5 1.07.32 0 0 .14 0 .19.08a.85.85 0 0 0 1 .09.65.65 0 0 0 .7.38L36.75 34l-.09-.11-.1-.1-.1-.1-.1-.1-.22-.2H36l-.34-.44.43-.1.33.31z" class="cls-5"/><path d="M41 65.09l-.54 1.09c-.18 0-.23-.14-.17-.31a1.82 1.82 0 0 0 .07-.25l.06-.33h-.28c-.35-.07-.08-.31-.12-.46.34-.12.13-.35.11-.54a.34.34 0 0 0 0-.1l.22-.22c0-.11-.07-.21-.1-.32.19 0 .17-.18.21-.32.13-.53 0-1.12.43-1.57v-.15c0-.39-.09-.78-.17-1.16 0-.21-.08-.37.09-.54s0-.17.06-.25v-.12c.42 0 .28-.3.29-.53.33-.15.22-.45.23-.7 0-.53 0-.56.62-.6h.86a6.66 6.66 0 0 0 .86-.16 4.19 4.19 0 0 0-.25 1c0 .42-.3.62-.54.92l.37.15a5.77 5.77 0 0 0-.3.69c-.12.39-.2.8-.31 1.19a3.35 3.35 0 0 1-.24.65c-.32.68-.66 1.36-1 2-.13.21-.27.42-.4.64zm.42-1.73a2.21 2.21 0 0 0-.82 1.74z" class="cls-6"/><path d="M33.77 15c.52-.89 1-1.79 1.59-2.66a5.38 5.38 0 0 1 .76-.83l.1-.09a.6.6 0 0 0 .54-.14c.34-.31.71-.59 1-.9a1.86 1.86 0 0 0 .27-.45.29.29 0 0 0 0-.09c.53-.29.7-.15.77.38a5.46 5.46 0 0 1 0 .57l-.54-.39v.7c0 .64 0 1.27-.12 1.9a5.76 5.76 0 0 1-.14 1.05c-.05.16-.07.36-.3.39 0-.24-.22-.3-.44-.29l-.19.44-.56-.29c-.13.48-.48.57-.86.62a1.11 1.11 0 0 0-.34.14c-.2 0-.22.19-.23.35h-.18c-.09-.1-.17-.25-.28-.27a.54.54 0 0 0-.31.07z" class="cls-5"/><path d="M47.9 35.92h.8c0 .25 0 .5.06.76s0 .51-.34.58a.23.23 0 0 0-.13.41.69.69 0 0 1-.08 1.09 1.89 1.89 0 0 0 .26.39 1.18 1.18 0 0 1 .41.88.79.79 0 0 0 .49.7v.42l-.06.32v.32c-.2 0-.4.26-.6-.07 0 .18-.14.34-.1.41.24.37.12.81.28 1.19l-.41.09-.23-.21c-.14-.08-.24-.3-.44-.1l-.31-.25c-.24-.19-.28-.58-.65-.63l-.06-.2c0-.18.12-.38-.16-.45v-.19L47 39.6v-.43a5.64 5.64 0 0 0 .74-3V36l.1-.1z" class="cls-8"/><path d="M21.84 38.71a13.94 13.94 0 0 1 1.31-3l.76-1.28h.07a1.16 1.16 0 0 1 0 .18.46.46 0 0 0 .39.57l.15.14.06-.17.12-.11c.21 0 .3-.1.34-.29l.51-.27.52.11a.45.45 0 0 0 .54-.21c-.18-.14-.56 0-.49-.39l.52-.36h.54l1.33.33-.24.65c-.08.44-.42.07-.64.23v.56h-1.12c-.11-.17-.18-.1-.22.05a7.59 7.59 0 0 0-.65.46 14.11 14.11 0 0 1-1.94 1.67c-.23.13-.35.46-.52.7l-.31-.1c-.53-.16-.57-.14-.8.37-.07.08-.15.11-.23.16z" class="cls-7"/><path d="M27.15 25.74c.26-.7.47-1.42.79-2.09a6.17 6.17 0 0 1 1.4-2.19h.07c.09.23.25.24.42.1a2.21 2.21 0 0 0 .22-.29c.39-.45.54-.5.92-.34l.26-.24c0 .22-.07.36 0 .45a.39.39 0 0 1-.23.56c-.06 0-.09.1-.14.16h-.21c-.07-.06-.14-.18-.21-.17a.89.89 0 0 0-.75 1 2.9 2.9 0 0 1 0 .51h-.16c-.27 0-.53.08-.59.42s0 .61.37.81l1.35.72v.1l.1.32v.12l.11.32v.22l-.6-.23c-.21.46-.76.26-1.05.62-.37-.16-.75-.34-1.14-.49s-.43-.11-.63.25a2.17 2.17 0 0 1-.23.3h-.13z" class="cls-9"/><path d="M26.53 27.82c0-.16 0-.32.15-.39h.15l.87-.09c.38.15.76.46 1.19.08h.2c.37.07.74.14 1.1.23s.45.14.67.21v.08l.5-.13c-.1-.18-.2-.34 0-.53a.38.38 0 0 0 0-.3 1.91 1.91 0 0 1 0-1c.05-.25.16-.58-.19-.76l-.08-.7a.74.74 0 0 1-.46-.9 1.41 1.41 0 0 0 0-.21c.21.13.41.26.63.37s.44.19.66.29l.39.16c.08.58.18 1.1.24 1.63a3.81 3.81 0 0 1 0 1c-.1.57-.26 1.13-.4 1.7 0 .06-.07.11-.1.16l-.74-.17-.81-.26c-.12 0-.22-.14-.34-.15-.59 0-1.11-.36-1.7-.41a.89.89 0 0 0-1.07 1c-.14.1-.28.2-.41.31s-.51.43-.77.63c0 0-.11-.07-.17-.1l.33-1.09a1 1 0 0 0 .74-.21zm9.37-9.31h-.41c-.08-.22-.23-.18-.39-.11-.38-.12-.68-.46-1.22-.44a2.57 2.57 0 0 0 .29.29c.29.18.6.34.88.52a2 2 0 0 1 .33.32c-.23.42-.44.85-.69 1.26a.87.87 0 0 1-.59.5 3.84 3.84 0 0 1-.22-1.16c0-.35-.05-.48-.37-.48a.62.62 0 0 1-.67-.38c-.62.26-.89.09-.93-.55v-.32l.58-.94.07-.09h.57c.22.47.37.5.91.17l-.17-.4h.4v-.33l.33.17.47.43-.34.16.43.52.21-.05 1 .13a1.65 1.65 0 0 1-.24.33.6.6 0 0 0-.23.45z" class="cls-10"/><path d="M37.14 27.49l.39.86-.22.45a.64.64 0 0 0-.66.33.48.48 0 0 1-.44.48l-.16.7.51-.11a.87.87 0 0 0 .42.95 1.48 1.48 0 0 1 .26.24c.14.18.26.38.4.59l-.35.28c-.18-.17-.35-.47-.54-.49s-.45-.27-.61-.45-.29-.43-.58-.51l-.09-.29.1-.87-.44.33h-.2c-.44-.23-.08-.6-.14-.91-.29-.15-.61-.26-.73-.6v-.21l.58.28c0-.07.11-.18.08-.24a.53.53 0 0 1 .21-.63c.41-.19.45-.5.48-.86l-.24-.14c.11-.29.2-.53.3-.76l.24-.58c.32.23.2.56.17.85s-.14.84-.22 1.26a.76.76 0 0 0 .32.86z" class="cls-7"/><path d="M48 52c-.2.53-.39 1.07-.61 1.59-.07.15-.25.26-.46.47a.71.71 0 0 1-.44.74c0-.32-.07-.63-.13-.94s-.11-.34-.33-.35l.39-.63a6.78 6.78 0 0 0 .52-.86 14.42 14.42 0 0 0 .87-2.75 6.81 6.81 0 0 0 .17-2 1.08 1.08 0 0 0 .23-.18 2.3 2.3 0 0 0 .18-1.09c.41 0 .17.38.32.53l.16-.12c0 .51-.06 1-.12 1.51-.06.65-.15 1.31-.23 2 0 .21 0 .42-.06.63v.21l-.07.23-.15.53zm-1.28 1h-.07v.08l.11.32v.24h.08l-.09-.25c.05-.2.01-.3-.03-.39z" class="cls-11"/><path d="M27.4 28.72a.89.89 0 0 1 1.07-1c.59.05 1.11.37 1.7.41.12 0 .22.11.34.15l.81.26.74.17s.09-.1.1-.16c.14-.57.3-1.13.4-1.7a3.81 3.81 0 0 0 0-1c-.06-.53-.16-1.05-.24-1.63l-.39-.16V24h.55l.54.23c0 .2-.06.43 0 .58a1.06 1.06 0 0 1 0 .82c0 .17-.09.39.12.53l.06.62c-.24.17-.24.21 0 .4v.24c-.39.3-.41.55-.07.9v.31c-.23.08-.21.17 0 .27v.14c-.33.12-.33.13-.08.37l-.07.54-.68-.12c-.32-.18-.64-.37-1-.53s-.45-.21-.68-.31-.39-.18-.59-.24a4.79 4.79 0 0 0-2.63-.03zM36.76 10c-.43.5-.89 1-1.31 1.52-.3.37-.54.78-.82 1.17-.09.13-.2.25-.3.37l-.14-.27c.09-.19.2-.37.28-.57a.65.65 0 0 0 .09-.35c-.06-.42-.15-.83-.24-1.32h-.45c.14-.37.27-.74.4-1.11.08-.15.18-.29.25-.45.18-.45.35-.91.53-1.36l.38-.06.27.81c-.35.18-.11.57-.2.87s-.13.7.37.85a3.63 3.63 0 0 0 .39-1.64c.18.18.26 0 .36-.1.09.16.32.27.18.5a1.42 1.42 0 0 0-.04 1.14z" class="cls-5"/><path d="M18.44 7.64c.35.16.67.3 1 .47a7.67 7.67 0 0 0 .84.46 16.84 16.84 0 0 1 3.36 1.77c.72.47 1.52.81 2.25 1.26.47.28 1 .49 1.28 1a1 1 0 0 1 0 .34c-.11 0-.27 0-.33-.07a5.46 5.46 0 0 0-1.54-1.07c-1.11-.66-2.21-1.34-3.34-2-.52-.29-1.1-.5-1.65-.76-.34-.16-.66-.36-1-.53s-.46-.19-.69-.29-.24 0-.3-.11a.53.53 0 0 1-.08-.33c.02-.01.12-.07.2-.14z" class="cls-12"/><path d="M31.9 18v.32c0 .64.31.81.93.55a.62.62 0 0 0 .67.38c.32 0 .4.13.37.48a3.84 3.84 0 0 0 .22 1.16 2.62 2.62 0 0 0 0 .28l-.12.33-.08.44-.16.31-.19.15-.43.41c-.25 0-.3-.23-.33-.43l1-1.62-.43-.25.37-.24c-.07-.19 0-.41-.29-.49-.14.22-.35.41-.37.63a.31.31 0 0 1-.34.32c-.21 0-.4-.1-.38-.35s-.16-.44-.43-.51-.37-.12-.56-.18v.08l-1 .33c.07-.14.11-.33.23-.41a2.06 2.06 0 0 0 .45-.69 7.86 7.86 0 0 1 .87-1z" class="cls-13"/><path d="M43.15 35.83a12.22 12.22 0 0 0 1.29-2.55.84.84 0 0 1 .13-.12l1 .78V34a1.31 1.31 0 0 0-.08.5 3.78 3.78 0 0 1 0 1.64l-.11.21c-.14 0-.32.06-.42 0-.46-.29-1-.12-1.45-.19-.09-.11-.06-.42-.36-.33z" class="cls-14"/><path d="M58 53.56l-.81-.56c-.47-.26-.95-.51-1.41-.79l-4.19-2.54s-.06-.08-.1-.15c.17-.23.36-.15.55 0s.55.35.83.51c.89.53 1.78 1.08 2.69 1.59 1.15.63 2.32 1.22 3.47 1.84.44.24.86.53 1.31.74a1.46 1.46 0 0 1 .68.49l-.18.28c-.57-.3-1.14-.61-1.71-.89-.37-.2-.76-.35-1.13-.52z" class="cls-15"/><path d="M36.76 10a1.42 1.42 0 0 1 0-1.14c.14-.23-.09-.34-.18-.5a6.71 6.71 0 0 0 .22-1.06 8.45 8.45 0 0 0-.06-1.23.38.38 0 0 0-.48-.36l.11 1C36 7 36 6.45 35.7 6.49a2.23 2.23 0 0 0-.21.41c-.06.17-.14.28-.33.3l.1-1.08a4.54 4.54 0 0 1 .26-.7.85.85 0 0 1 1-.31 1.46 1.46 0 0 1 1 1.59 8.06 8.06 0 0 1-.24 2.3c-.1.43-.11.8-.52 1z" class="cls-6"/><path d="M63.35 40.76a9.06 9.06 0 0 1-3.26-.52c-.87-.29-1.76-.52-2.64-.74s-1.6-.39-2.45-.5a9.71 9.71 0 0 1-1.69-.25l-.31-.12c.11-.1.17-.21.24-.22a3.42 3.42 0 0 1 .64 0 27.62 27.62 0 0 1 5.46 1.14c.7.22 1.4.43 2.11.63a3.55 3.55 0 0 0 .47.08l1.22.16z" class="cls-14"/><path d="M27.4 28.72a4.79 4.79 0 0 1 2.6.07c.2.06.39.16.59.24s.46.19.68.31.65.35 1 .53c-.19 0-.28.12-.14.31s.1.14.14.21L31 30a19.91 19.91 0 0 0-2.16-.8c-.52-.11-.92.23-1.4.18-.12 0-.25.11-.37.17a5.22 5.22 0 0 0-1.32 1.16 1.75 1.75 0 0 1 .28-1.2c.06 0 .15.11.17.1.26-.2.51-.42.77-.63s.29-.16.43-.26z" class="cls-3"/><path d="M37.76 28.83a2.25 2.25 0 0 1 .36.4c.63 1.07 1.24 2.15 1.85 3.22-.34 0-.7 0-.94.32h-.2c0-.5-.37-.85-.55-1.28l-1-.76v-.6c0-.21 0-.15-.06-.23z" class="cls-16"/><path d="M34.07 28.26v.21a.38.38 0 0 0-.29.51c0 .15 0 .3.07.45l-.31-.2.09-2.23c.54-.09.52-.1.55-.59 0-.33.1-.65.15-1-.31-.15-.25-.44-.15-.74l.67-.2a8.88 8.88 0 0 0 .25-.94.91.91 0 0 1 .81-.92H36c0 .22.34.38.13.65h-.33v.38c0 .12 0 .28-.07.35s-.07.36 0 .55l-.62.29v.57c-.37 0-.34.22-.35.47s.08.48-.25.56c.33.5-.1.88-.15 1.32-.36.03-.27.25-.29.51z" class="cls-6"/><path d="M33.54 29.23l.31.2c.2.17.4.34.59.52s.32.21.5 0h.2c0 .24 0 .52.34.54 0 .1 0 .27.09.29.29.08.41.31.58.51s.27.42.61.45.36.32.54.49v.11c-.17.28 0 .5.14.72s.43.43.4.77a24.81 24.81 0 0 1-2.31-2.16 11.39 11.39 0 0 0-1.2-1 2.48 2.48 0 0 0-.73-.29c-.39-.11-.42-.13-.31-.5s.16-.42.25-.65z" class="cls-14"/><path d="M46 31.52h.21c0 .66.6 1.12 1.49 1 .21 0 .38-.06.5.15 0 0 .05.18 0 .19-.38.23-.15.5 0 .78l-.43.29.26.5a4.53 4.53 0 0 1-.74-.07 4.43 4.43 0 0 1-.68-.28l-.16.23-.67-.58-.11-.11c.09-.21.18-.42.26-.63a.88.88 0 0 0 .12-.33c-.05-.42-.05-.78-.05-1.14z" class="cls-5"/><path d="M39.78 37.87l.41-.63-.61-1c.25-.13.24-.3 0-.45s-.4-.25-.34-.54h.09c.67.55 1.19 1.27 1.91 1.82l.7-1c.23.09.07.26.09.4l-.67.88c.32.44.61.82.87 1.22s.3.55.45.83l-.33.18-.2.15a1.71 1.71 0 0 0-.23-.47c-.39-.46-.8-.9-1.21-1.34s-.39-.33-.72.1z" class="cls-3"/><path d="M37.14 27.49L36 28.3a.76.76 0 0 1-.32-.86c.08-.42.18-.84.22-1.26s.15-.62-.17-.85a.13.13 0 0 1 0-.09c.55 0 .55 0 .76-.59 0-.08.19-.12.28-.17a.36.36 0 0 1 0 .09.35.35 0 0 0 .23.43c0 .51.07 1 .09 1.54.04.34.04.64.05.95z" class="cls-12"/><path d="M60.65 26.13h-5.42a12.87 12.87 0 0 0-3.1.2.4.4 0 0 1-.15 0c-.06-.41 0-.47.31-.49.77-.05 1.53-.08 2.3-.1s1.36 0 2 0c.52 0 1-.09 1.55-.08.82 0 1.65.08 2.47.11z" class="cls-11"/><path d="M21.84 38.71c.08-.05.2-.08.23-.15.23-.51.27-.53.8-.37l.31.1h.3v.11a.76.76 0 0 0-.76 1l-.08.33v.54a2.3 2.3 0 0 1-.18.43 2.28 2.28 0 0 0-.38 1.94c.06.21.16.51-.16.66 0-.38-.09-.77-.14-1.16a5.77 5.77 0 0 0-.08-.58c-.13-.56-.13-.56-.7-.56.13-.39.25-.79.38-1.18a.66.66 0 0 0 .66-.39l-.42-.25z" class="cls-12"/><path d="M50.16 10.21a5.26 5.26 0 0 1-1.51.77c-.65.21-1.26.51-1.88.78l-1.75.8c-.28.12-.54.27-.82.4s-.82.36-1.24.52c-.07 0-.18 0-.28-.05s.09-.22.14-.32c.89-.41 1.77-.83 2.67-1.23s1.79-.8 2.7-1.2l1.56-.68c.06.23.25.24.41.21z" class="cls-15"/><path d="M27.7 27.3l-.87.09-.13-.1.07-.55.05-.12.33-.88-.06.86h.13a2.17 2.17 0 0 0 .23-.3c.2-.36.24-.39.63-.25s.77.33 1.14.49c.29-.36.84-.16 1.05-.62l.56.24a4.59 4.59 0 0 0-.1.51c0 .28-.2.35-.44.35h-.69c-.23 0-.43.05-.51.31h-.2l-1.08-.18s-.08.12-.11.15z" class="cls-17"/><path d="M30.39 20.05l1-.33v-.08c.19.06.37.13.56.18s.45.19.43.51.17.35.38.35a.31.31 0 0 0 .34-.32c0-.22.23-.41.37-.63.25.08.22.3.29.49l-.37.24.43.25-1 1.62h-.44v-.15a.5.5 0 0 0 .18-.74l-.16-.36-.9.24a.56.56 0 0 1 0-.2c.21-.41.12-.59-.31-.6-.26 0-.53-.2-.79.06 0 0-.23-.06-.34-.1z" class="cls-18"/><path d="M40.55 7.15v-.77c.16 0 .27.1.45 0 1.11-.66 2.24-1.28 3.36-1.91a1.36 1.36 0 0 1 .86-.27c-.08.55-.51.71-.86.92-.63.38-1.29.72-1.92 1.09-.42.25-.81.54-1.22.77a2.69 2.69 0 0 1-.67.17z" class="cls-16"/><path d="M34.19 12.79l.14.27-.25.52-.27.08.11.14c-.15.28-.3.56-.46.84l-1.1 1.84-.88 1.41c-.18-.09-.12-.24-.08-.36.11-.32.23-.63.35-.94a.42.42 0 0 0 .5-.29c.19-.45.43-.89.65-1.33l.31-.57-.63-.5.27-1.1v-.2l.13-.11a1.64 1.64 0 0 1 .5.17.84.84 0 0 0 .71.13z" class="cls-10"/><path d="M11.76 33.71h-.37c-.35-.27-.66-.07-1 .07-.17.06-.36.14-.49 0s0-.2 0-.3.27-.19.45-.18c1 0 2.06.07 3.09.12.21 0 .42.06.63.09a.18.18 0 0 0 .32 0h.11l.23.08 1.05.1a.39.39 0 0 0 .55 0h.77c.16.16.28 0 .42-.06l.86.08v.36h-.53a.33.33 0 0 0-.57 0H16a.59.59 0 0 0-.76-.05l-1.83-.19h-.66z" class="cls-12"/><path d="M46 53.53c.22 0 .3.17.33.35s.09.62.13.94l-.67.59c-.24-.12.15-.61-.35-.67.05.31.09.58.13.85a1.24 1.24 0 0 0-1.35.74l-.48-.19a3.8 3.8 0 0 0 .81-1.55c.12-.05.29-.07.35-.16a3.54 3.54 0 0 1 1.1-.9zm-34.83-9.94a.8.8 0 0 1 .23-.11c1.44-.19 2.88-.39 4.32-.56a9.46 9.46 0 0 1 1.07-.06 1.11 1.11 0 0 0 .86-.22h.28c.1 0 0 .2 0 .24a1.23 1.23 0 0 1-.47.33 6 6 0 0 1-1 .12c-.55 0-1.11.08-1.66.15l-2.33.35a.48.48 0 0 1-.14-.05l.89-.34z" class="cls-7"/><path d="M34.6 16.48l-.33-.17v.33h-.4L34 17c-.54.33-.69.3-.91-.17h-.57L33.77 15l.49.23a.54.54 0 0 1 .31-.07c.11 0 .19.17.28.27s0 .35-.05.4c-.28.17-.17.42-.2.65z" class="cls-19"/><path d="M36 22.54h-.1a.94.94 0 0 0-.76-.65l.2-.22c.1.1.2.12.22 0a.63.63 0 0 0-.1-.28c.13-.29.26-.58.4-.86.05-.11.14-.21.19-.32l.57-1.23h.12c0 .47-.08.95-.08 1.43s.07 1 .1 1.49c-.3 0-.36.31-.53.47s-.14.1-.23.17z" class="cls-3"/><path d="M21.05 16.31a16.75 16.75 0 0 1-2.61-1 4.68 4.68 0 0 0-1.89-.61.32.32 0 0 1 0-.5c.16-.15.3 0 .44 0 .53.21 1.07.4 1.6.62l2.81 1.17c.02.33-.21.26-.35.32z" class="cls-12"/><path d="M21.05 16.31c.14-.06.37 0 .38-.25a21.12 21.12 0 0 1 3.47 1.08 6.28 6.28 0 0 0 .86.31 1 1 0 0 1 .34.15c.07.07.15.26.11.31a.41.41 0 0 1-.34.15c-.38-.12-.73-.29-1.1-.42l-2.53-.86c-.4-.14-.79-.31-1.19-.47z" class="cls-7"/><path d="M30.08 20.47c.11 0 .3.14.34.1.26-.26.53-.06.79-.06.43 0 .52.19.31.6a.56.56 0 0 0 0 .2l.9-.24.16.36a.5.5 0 0 1-.18.74v.15l-.32.11c-.43-.12-.92-.1-1.19-.55.05-.06.08-.13.14-.16a.39.39 0 0 0 .23-.56v-.45L31 21c-.38-.16-.53-.11-.92.34a2.21 2.21 0 0 1-.22.29c-.17.14-.33.13-.42-.1.41 0 .34-.31.33-.57.17 0 .22-.1.19-.26z" class="cls-20"/><path d="M25.77 30.76a5.22 5.22 0 0 1 1.32-1.16l.28.52c-.48.14-.72.41-.63.87-.31.21-.41-.09-.6-.26-.06.16-.16.29-.13.38a.94.94 0 0 1-.26.94 4.85 4.85 0 0 0-.75 1.38 2 2 0 0 1-1 1h-.08l1.2-2.25.1-.12.35-.62.18-.36z" class="cls-12"/><path d="M42.71 39.38c-.15-.28-.28-.57-.45-.83s-.55-.78-.87-1.22c.23-.29.45-.59.67-.88l.13.43.46-.45h.16v.21a2.29 2.29 0 0 0-.11.67 4.69 4.69 0 0 0 .3 1.14 1.16 1.16 0 0 1-.29 1.27z" class="cls-8"/><path d="M47.1 17.65c-.17-.34-.1-.55.23-.64.62-.15 1.25-.27 1.88-.42l1.72-.41a5.9 5.9 0 0 1 .73-.15c.19 0 .29.16.17.32a.69.69 0 0 1-.34.22c-.65.14-1.3.25-2 .39s-1.11.25-1.66.4c-.2.07-.44.18-.73.29z" class="cls-12"/><path d="M14.22 52l3.55-2.71a.71.71 0 0 1 .76-.15 1.28 1.28 0 0 1-.24.33c-.29.24-.61.45-.9.68-.78.61-1.55 1.23-2.33 1.83a3.76 3.76 0 0 1-.55.32c.06-.22-.08-.3-.29-.3z" class="cls-7"/><path d="M31 30l1.2.36a1.54 1.54 0 0 1 .55.26 3.63 3.63 0 0 0 .91.33c.2.08.4.2.6.29l.1.1.1.08.19.16c0 .2.08.41.13.61-.7-.26-1.33-.67-2.05-.88-.4-.12-.79-.28-1.18-.42l-.24-.2c-.06-.13-.11-.27-.18-.4s-.04-.16-.13-.29z" class="cls-21"/><path d="M24.88 54c-.41-.1-.53-.52-.59-.8a1.85 1.85 0 0 0-.48-.92A19.76 19.76 0 0 1 22.59 50c-.27-.66-.67-1.25-.94-1.9-.12-.29-.42-.53-.31-.89.37.52.77 1 1.1 1.58a10.61 10.61 0 0 1 .62 1.37 7.14 7.14 0 0 0 1 1.67 6.08 6.08 0 0 1 .9 1.71c.04.18.04.31-.08.46zm9.3-29.41c-.1.3-.16.59.15.74 0 .39-.13.71-.15 1 0 .49 0 .5-.55.59a.78.78 0 0 1-.09-.24 19.49 19.49 0 0 0 .08-2 2.24 2.24 0 0 1 .77-1.85c.13 0 .33-.08.41.18l-.33.23c.06.52.19 1.06-.5 1.31zm14.28 25.92c0-.21 0-.42.06-.63.08-.66.17-1.32.23-2 .06-.5.08-1 .12-1.51l.19-1.72v-.31l.17-1c.19 0 .31 0 .31-.26v-.58a1.73 1.73 0 0 1 0 1.44l-.15-.34a1 1 0 0 0 0 1.09c-.06.35-.12.63-.15.92a17.35 17.35 0 0 1-.13 1.92c-.15.85-.19 1.72-.41 2.55.01.21-.03.39-.24.43z" class="cls-3"/><path d="M34.19 12.79a.84.84 0 0 1-.67-.13 1.64 1.64 0 0 0-.5-.17v-.11a6.19 6.19 0 0 1 .88-1.83h.45c.09.49.18.9.24 1.32a.65.65 0 0 1-.09.35c-.11.2-.22.38-.31.57z" class="cls-19"/><path d="M46 31.52v1.07a.88.88 0 0 1-.12.33c-.08.21-.17.42-.26.63L45 33a1 1 0 0 1-.29-.77c.45-.12.45-.12.33-.52l-.06-.2c-.09-.34-.06-.38.29-.48l.33-.03z" class="cls-4"/><path d="M19.6 25.78a3.38 3.38 0 0 1 .78 0 10.81 10.81 0 0 0 2.12.28 9.05 9.05 0 0 1 .91.12c.1 0 .18.12.27.19a1.07 1.07 0 0 1-.24.31c-.07.05-.21 0-.31 0l-1.81-.23c-.22 0-.43-.05-.64-.09l-1.41-.31z" class="cls-7"/><path d="M31.75 16.59c-.12.31-.24.62-.35.94 0 .12-.1.27.08.36-.2.38-.2.38-.61.12-.06-.59.31-1.06.43-1.6a12 12 0 0 1 .5-1.41c.12-.32.23-.64.36-.95a6.82 6.82 0 0 1 .31-.79 2.93 2.93 0 0 1 .38-.49l-.27 1.1-.71 2.44-.07.13z" class="cls-22"/><path d="M40.91 34l.18.25c0 .23-.23.18-.38.2s-.43 0-.49.31a1.54 1.54 0 0 0-.85 0 1.41 1.41 0 0 0-.32-.4 5.74 5.74 0 0 0-.71-.33c.06-.08.16-.2.15-.22-.18-.19 0-.37 0-.55.45-.16.43-.15.75.18a6.6 6.6 0 0 0 .76.64.3.3 0 0 0 .21 0z" class="cls-10"/><path d="M17.72 57.46c-.27-.22-.21-.37-.07-.52s.53-.53.78-.81.37-.48.56-.71c.33-.39.67-.78 1-1.16.09-.11.24-.21.35 0a.32.32 0 0 1-.06.32c-.72.86-1.45 1.72-2.18 2.57a3.46 3.46 0 0 1-.38.31z" class="cls-7"/><path d="M38.91 10.77a5.46 5.46 0 0 0 0-.57c-.07-.53-.24-.67-.77-.38a2.09 2.09 0 0 1 .21-.53.42.42 0 0 1 .71.07 4.12 4.12 0 0 1 .47 2.31v1.24a8.59 8.59 0 0 1-.14 1c0 .08-.11.13-.17.2-.06-.22.09-.48-.15-.66 0-.21.09-.41.12-.62q.07-.63.12-1.26a.35.35 0 0 0-.28-.4z" class="cls-22"/><path d="M40.91 34l-.68.11a.3.3 0 0 1-.21 0 6.6 6.6 0 0 1-.76-.64c-.32-.33-.3-.34-.75-.18v-.21l.34-.23h.2c.24-.34.6-.3.94-.32z" class="cls-13"/><path d="M54.64 44.54l3.5.78c.19 0 .35.13.33.35s-.23.25-.48.18c-.85-.22-1.69-.43-2.53-.66a7.32 7.32 0 0 1-.87-.37z" class="cls-7"/><path d="M38.49 33v.21c0 .18-.2.36 0 .55 0 0-.09.14-.15.22a5.74 5.74 0 0 1 .71.33 1.41 1.41 0 0 1 .32.4v.53h-.09l-1.43-1.41c0-.34-.22-.54-.4-.77s-.31-.44-.14-.72l.65.05z" class="cls-5"/><path d="M25.55 6.32a7 7 0 0 1 2.55 2.33v.33c0 .11-.27 0-.34 0a3.71 3.71 0 0 1-.49-.56 7.11 7.11 0 0 0-1.89-1.66l-.26-.19c.18-.03.41.06.43-.25z" class="cls-7"/><path d="M54.58 32.86a.33.33 0 0 1 .43-.22l2.37.68.42.11c.17 0 .38.1.3.35s-.26.2-.45.11-.42-.18-.64-.27a5.28 5.28 0 0 0-1.87-.45c-.24-.02-.47-.04-.56-.31z" class="cls-12"/><path d="M39 13.45c.24.18.09.44.15.66a12 12 0 0 1-2.82 4.43c-.1-.39.28-.61.34-.95a2.11 2.11 0 0 0 .73-1 .29.29 0 0 0 0-.09c.05 0 .11 0 .14-.08.3-.42.58-.85.88-1.26a2.08 2.08 0 0 0 .38-1.38c.03-.16.02-.29.2-.33z" class="cls-6"/><path d="M36.75 24.48c-.09.05-.25.09-.28.17-.21.57-.21.58-.76.59v-.77c0-.19-.13-.36 0-.55s.06-.23.07-.35 0-.24 0-.38h.33l.51.23c-.11.27.05.45.21.63s0 .22 0 .32z" class="cls-21"/><path d="M40.22 34.73c.06-.27.27-.3.49-.31s.34 0 .38-.2a6.19 6.19 0 0 1 .58.67c.22.36.38.76.59 1.12a3.08 3.08 0 0 0 .39.42l-.46.45-.13-.43c0-.14.14-.31-.09-.4a.91.91 0 0 0-.3-.11c-.33 0-.5-.14-.47-.49a.48.48 0 0 0-.34-.49c-.21-.09-.43-.16-.64-.23z" class="cls-19"/><path d="M19.6 25.78l-.33.32-.95-.1a4.08 4.08 0 0 0-1.32-.33.82.82 0 0 0-.29.07h-.43l-.28-.13-.69-.25-.3-.17c-.12-.08-.17-.17 0-.29l.54.19h.13l1.16.25h.21l.32.06c.05.11.12.16.22 0l.55.1h.21z" class="cls-12"/><path d="M55.43 56.89a4.85 4.85 0 0 1 .35.57.5.5 0 0 1 0 .38.26.26 0 0 1-.41.08 7 7 0 0 0-1.3-2l-.68-.75.59.08.17.13c-.15.25.07.17.17.2l.83.94c.1.12.19.25.28.37z" class="cls-7"/><path d="M34.18 24.59h-.21c.69-.25.56-.79.5-1.31l.33-.28c-.08-.26-.28-.14-.41-.18l.21-.33h.55v-.62a.94.94 0 0 1 .76.65.91.91 0 0 0-.81.92 8.88 8.88 0 0 1-.25.94zm1.08-18.47c0 .36-.06.72-.1 1.08 0 .14-.07.29-.11.43-.18.45-.35.91-.53 1.36-.07.16-.17.3-.25.45a.8.8 0 0 1-.08-.69c.24-.77.46-1.54.7-2.3.05-.18.11-.34.37-.33z" class="cls-22"/><path d="M42.84 36.67v-.21a.19.19 0 0 0 0-.07l.31-.54c.3-.09.27.22.4.33l.44.62c0 .12-.06.28-.1.43l-.11.23a.46.46 0 0 0-.47.22c-.09-.22-.2-.43-.27-.66s-.04-.31-.2-.35z" class="cls-10"/><path d="M37.76 28.83l-.57 1.05-.62.32-.51.11.16-.7a.48.48 0 0 0 .44-.48l.66-.33a1.12 1.12 0 0 1 .23-.06.85.85 0 0 1 .21.09z" class="cls-23"/><path d="M34.09 21.12a2.62 2.62 0 0 1 0-.28.87.87 0 0 0 .59-.5c.25-.41.46-.84.69-1.26h.2l.13.53-.36.73a1.31 1.31 0 0 0-.81.67 7.76 7.76 0 0 1-.65.86l.08-.44c.14-.05.26-.13.13-.31z" class="cls-8"/><path d="M33.89 21.89a7.76 7.76 0 0 0 .65-.86 1.31 1.31 0 0 1 .81-.67 3 3 0 0 1-.23.59 7.28 7.28 0 0 1-1.36 1.81v-.56z" class="cls-6"/><path d="M54 55.25l-.59-.08-.74-.83-.51-.6c.46-.16.5-.15.72.13l.67.83.11.12z" class="cls-16"/><path d="M15.36 38.05c.44.13.89.23 1.31.4s.27.3 0 .69a4.88 4.88 0 0 0-1.86-.83h.61z" class="cls-7"/><path d="M45.74 33.66l.67.58.16-.23a4.43 4.43 0 0 0 .68.28 4.53 4.53 0 0 0 .74.07l.67.21-1 .17a3.56 3.56 0 0 0-1.07-.26 1 1 0 0 1-.66-.24 4.15 4.15 0 0 1-.34-.24v-.11zM38.08 9.91a1.86 1.86 0 0 1-.27.45c-.33.31-.7.59-1 .9a.6.6 0 0 1-.54.14l1.43-1.7z" class="cls-22"/><path d="M21.84 21c.1-.28.25-.32.41-.25.33.14.65.3 1 .46a.37.37 0 0 1 .19.18.25.25 0 0 1 0 .24.24.24 0 0 1-.23.06c-.48-.25-.92-.49-1.37-.69z" class="cls-12"/><path d="M30.86 4l.19.22a9 9 0 0 1 .58.8c.08.14.1.35-.2.46-.16-.24-.31-.51-.49-.76s-.41-.48-.62-.73z" class="cls-7"/><path d="M39.26 2.56c-.23.51-.47 1-.71 1.53 0 0-.12 0-.25.1a4.32 4.32 0 0 1 .51-1.64c0-.06.15-.07.23-.11z" class="cls-15"/><path d="M34.84 32.23c-.05-.2-.09-.41-.13-.61h.2l1.21 1.17-.43.1a.23.23 0 0 1-.35-.12.42.42 0 0 0-.45-.31z" class="cls-4"/><path d="M36.65 23.42l-.51-.23c.21-.27-.14-.43-.13-.65.08-.07.16-.12.23-.19s.23-.45.53-.47c0 .25.07.51.1.76-.06.08-.16.16-.18.25s.12.12.19.18l-.1.3z" class="cls-22"/><path d="M15.73 46.81a1 1 0 0 1 1.56-.29c-.15.07-.26.18-.37.18a2 2 0 0 0-1 .16s-.09-.02-.19-.05z" class="cls-12"/><path d="M33.13 26.2c-.21-.14-.16-.36-.12-.53a1.06 1.06 0 0 0 0-.82c-.08-.15 0-.38 0-.58l-.55-.27c.19 0 .44.07.41-.27h.23a4.58 4.58 0 0 1 .22 1.94c0 .21.02.41-.19.53z" class="cls-3"/><path d="M19.53 29.84a4.18 4.18 0 0 0-.61-.44 3.52 3.52 0 0 0-.6-.14c.17-.34.31-.41.62-.32a.78.78 0 0 1 .59.9z" class="cls-12"/><path d="M48.87 43.28c-.16-.38 0-.82-.28-1.19 0-.07 0-.23.1-.41.2.33.4.09.6.07v.55c0 .11 0 .22-.07.33s0 .23 0 .34z" class="cls-6"/><path d="M33.1 23.74h-.23l-.1-.07.34-.94.43-.41.19-.15v.65l-.1.1c-.27.06-.2.27-.19.45z" class="cls-21"/><path d="M48.87 43.28l.3-.31v.4c-.06.34-.12.67-.17 1h-.6c.06-.1.1-.21.16-.31s0-.21-.14-.23v-.44z" class="cls-11"/><path d="M49.75 37.88V35c.06.07.18.14.18.21v2.34c.07.1.07.28-.18.33z" class="cls-3"/><path d="M11.17 43.59l2.08-.13-.89.34-.18.06-.36.06h-.34c-.11.08-.21.21-.36.07s-.07-.25.05-.4z" class="cls-18"/><path d="M17.58 52.75c.1-.38.43-.44.69-.58.06 0 .24 0 .3.13s0 .26 0 .28a8.16 8.16 0 0 1-.84.26s-.09-.04-.15-.09zm4.03 3.45c-.09.31-.17.63-.28.94 0 .06-.16.14-.2.12S21 57.12 21 57a.72.72 0 0 1 .11-.35c.13-.19.27-.37.41-.55z" class="cls-12"/><path d="M18.41 34.05v-.36a3.62 3.62 0 0 1 .57 0c.08 0 .22.14.21.18s-.11.27-.18.28a2.89 2.89 0 0 1-.6-.1z" class="cls-7"/><path d="M36.68 17.59c-.06.34-.44.56-.34.95-.16.16-.3 0-.44 0a.6.6 0 0 1 .2-.51 1.65 1.65 0 0 0 .24-.33z" class="cls-5"/><path d="M26.53 27.82l.59.44a1 1 0 0 1-.74.21z" class="cls-16"/><path d="M14.22 52c.21 0 .35 0 .29.3l-.28.48a.51.51 0 0 1-.01-.78z" class="cls-18"/><path d="M16.69 25.74a.82.82 0 0 1 .29-.07 4.08 4.08 0 0 1 1.34.35h-.05zM60.11 55.9l.23-.23c.23.14.5.24.52.64a1.26 1.26 0 0 1-.75-.41z" class="cls-7"/><path d="M30.86 4h-.53a.84.84 0 0 1-.13-.27.25.25 0 0 1 .11-.21.26.26 0 0 1 .24 0c.11.22.21.38.31.48z" class="cls-16"/><path d="M15 24.9c-.14.12-.09.21 0 .29l.3.17a1.93 1.93 0 0 1-.34 0c-.22 0-.43-.08-.65-.12.14-.12.3-.22.22-.44zm6.66 14.27l.42.25a.66.66 0 0 1-.66.39z" class="cls-7"/><path d="M25.55 6.32c0 .31-.25.22-.43.22a.28.28 0 0 1 0-.48c.15-.11.25 0 .33.14l.09.11z" class="cls-18"/><path d="M15.36 38.05l.08.26h-.61l-.06-.31a1.36 1.36 0 0 1 .29 0 1.18 1.18 0 0 1 .3.05z" class="cls-16"/><path d="M35.15 21.88v.62h-.55c.12-.24.2-.5.55-.62zm-2.04 6.48c-.34-.35-.32-.6.07-.9.01.3.12.62-.07.9zm7.98 36.51c.13-.22.27-.43.4-.64l.24.06c-.17.28-.22.62-.64.58z" class="cls-3"/><path d="M54.64 44.54v.28a.68.68 0 0 1-.64-.22c.18-.31.18-.31.64-.06z" class="cls-16"/><path d="M11.76 33.71h1a1.24 1.24 0 0 1-1 0z" class="cls-7"/><path d="M49.44 40.25c.05-.17.11-.35.16-.53.14 0 .3 0 .33.16s-.1.24-.24.29z" class="cls-3"/><path d="M35.71 19.63l-.13-.53H36c0 .28-.07.45-.29.53z" class="cls-6"/><path d="M14.52 24.79c.08.22-.08.32-.22.44s-.27 0-.27-.18l.05-.15.11-.11h.25zM39.26 2.56L39 2.44l.28-.44c.32.28.15.42-.02.56z" class="cls-16"/><path d="M10.41 33.75c.32-.14.63-.34 1-.07z" class="cls-7"/><path d="M49.64 39.06c0-.25.07-.5.1-.75.16.41.15.54-.1.75z" class="cls-3"/><path d="M15.28 34a.59.59 0 0 1 .72 0z" class="cls-7"/><path d="M29.74 20.91c0 .26.08.55-.33.57h-.07z" class="cls-18"/><path d="M63.35 40.76l-.18-.34h.3c.16.18.12.3-.12.34zm-2.7-14.63v-.33a.27.27 0 0 1 .35.2c0 .19-.2.16-.35.13z" class="cls-12"/><path d="M17.31 34a.33.33 0 0 1 .57 0z" class="cls-7"/><path d="M36.65 23.42l.13-.05c0 .23 0 .46.08.68-.16-.18-.32-.36-.21-.63z" class="cls-6"/><path d="M50.16 10.21c-.18 0-.35 0-.41-.2.36-.17.41-.14.41.2z" class="cls-16"/><path d="M48 52l.21-.54c.1.29.06.41-.21.54z" class="cls-3"/><path d="M37 25a.35.35 0 0 1-.24-.47h.19z" class="cls-21"/><path d="M33 29.45c-.25-.24-.25-.25.08-.37-.08.12-.08.25-.08.37zm.45-6.05c0-.18-.08-.39.19-.45h.11zm3.43-.33c-.07-.06-.2-.14-.19-.18s.12-.17.18-.25c0 .14.01.29.01.43zm12.85 11.66a.27.27 0 0 1 0-.42c.15.14.16.28 0 .42z" class="cls-3"/><path d="M16.31 34h.46c-.16.21-.31.18-.46 0zm.04-.32a.39.39 0 0 1-.55 0z" class="cls-7"/><path d="M35.47 21.34a.63.63 0 0 1 .1.28c0 .16-.12.14-.22 0z" class="cls-22"/><path d="M33.18 27.22c-.23-.19-.23-.23 0-.4v.4zm16.13 14.21l.06-.32c.21.14.18.25-.06.32zm-.09 1.2c0-.11.05-.22.07-.33.18.15.14.26-.07.33z" class="cls-3"/><path d="M11.82 43.92l.36-.06a.23.23 0 0 1-.36.06zm5.72-10.31c-.14 0-.26.22-.42.06z" class="cls-7"/><path d="M33.92 13.8l-.11-.14.27-.08zm1.18 4.59c.16-.07.31-.11.39.11a.28.28 0 0 1-.39-.11z" class="cls-5"/><path d="M25.74 31.06l-.18.36c-.02-.16-.05-.32.18-.36z" class="cls-3"/><path d="M29.94 20.64c0 .16 0 .26-.19.26z" class="cls-18"/><path d="M33 12.38v.11l-.13.11c-.15-.16-.02-.19.13-.22z" class="cls-22"/><path d="M49.54 32.37l.06-.23c.18.14.08.19-.06.23zm.08.53a2 2 0 0 1-.08-.22c.13.03.24.08.08.22z" class="cls-3"/><path d="M54.32 55.58c-.1 0-.32.05-.17-.2z" class="cls-16"/><path d="M17.54 25.46c-.1.13-.17.08-.22 0zm.76.11zm-2.3.04l.28.08z" class="cls-7"/><path d="M33.08 28.94c-.2-.1-.22-.19 0-.27zM48.36 51l.07-.23c.17.09.07.14-.07.23z" class="cls-3"/><path d="M13.23 33.75h.22z" class="cls-7"/><path d="M50 33.58v.02a.43.43 0 0 0 0-.05z" class="cls-3"/><path d="M14.41 33.45a.18.18 0 0 1-.32 0z" class="cls-7"/><path d="M37 24.59h-.19a.36.36 0 0 0 0-.09l.16-.11c-.04.06.03.13.03.2z" class="cls-22"/><path d="M17 25.37h-.21zm-2.25 8.16l-.23-.08zm-.31-8.76h-.25z" class="cls-7"/><path d="M32.55 16.92l-.07.09z" class="cls-19"/><path d="M14.08 24.9l-.05.15zm1.55.2z" class="cls-7"/><path d="M26.82 26.62l-.05.12zm-.12.67l.13.1h-.15z" class="cls-16"/><path d="M33.75 23h-.11l.1-.1z" class="cls-6"/><path d="M25.55 6.31l-.09-.11z" class="cls-7"/><path d="M36.22 11.4l-.1.09z" class="cls-22"/><path d="M11.48 44h.14zm42.16 10.82l-.11-.12z" class="cls-7"/><path d="M37.11 33.76l-.1-.12zm.32.31l-.11-.1z" class="cls-4"/><path d="M42.84 36.37a.19.19 0 0 1 0 .07.09.09 0 0 1 0-.07z" class="cls-19"/><path d="M34.4 31.37l-.1-.1zm.12.09l-.1-.08z" class="cls-4"/><path d="M25.21 32l-.1.12z" class="cls-3"/><path d="M36.9 33.53l-.12-.1zm-.32-.33l-.13-.09z" class="cls-4"/><path d="M63.47 40.42h-.15z" class="cls-14"/><path d="M38.06 62.28c.19 0 .35.08.28.34s-.07.33-.12.54l1 .43-.43.2v.32h-.53l.48.93a.83.83 0 0 0-.49.77.54.54 0 0 1-.22.1c-.34 0-.55.08-.55.47 0 .06-.13.12-.2.19-.31-.31-.44.14-.7.15l-.22-.32-.68.28a1.1 1.1 0 0 1 .06-.26l1.14-3c.25 0 .32-.14.4-.31a.44.44 0 0 0 .45-.48.35.35 0 0 1 .33-.35z" class="cls-21"/><path d="M44.44 53.31h-.32c-.1-.12-.22-.14-.29 0s0 .22 0 .31-.12.19-.2.19a.26.26 0 0 1-.22-.15 4.41 4.41 0 0 1 0-.66h-.18c0-.16 0-.31.06-.47a.56.56 0 0 0-.21-.68c-.21-.17-.51-.39-.43-.78 0-.05-.1-.18-.16-.18-.43 0-.32-.33-.33-.58l.75-.11.12.75.34.16.05.6.42-.2.3.46c.11-.16.26-.28.25-.37a1.8 1.8 0 0 0-.25-.5c.17-.52.17-.52.84-.43v-.33a.79.79 0 0 0 .1-.81.37.37 0 0 1 0-.21 1.66 1.66 0 0 1 1.27-1.08c-.08.15-.16.3-.23.45-.15.35-.12.41.3.5l-.31.55v.09l-.49.27.12 1-.27.21.28.29a1.73 1.73 0 0 1-1 .75z" class="cls-13"/><path d="M46.06 49.76c.1-.18.21-.36.31-.55a1.59 1.59 0 0 0 .46-.19c.27-.21.5-.45.75-.68a7.64 7.64 0 0 1-.3 1.57 12.64 12.64 0 0 1-1.1 2.66 1.35 1.35 0 0 1-.81.72c-.1 0-.25.06-.31 0-.22-.19-.41 0-.62 0l.25-1a1.73 1.73 0 0 0 1-.75l-.28-.29.27-.21-.12-1 .49-.27h.05z" class="cls-7"/><path d="M41.23 55.37a6.31 6.31 0 0 1-.78 2.63c-.05.08-.08.19-.14.22-.44.23-.59.67-.82 1a3.55 3.55 0 0 1-1.85 1.4A3.3 3.3 0 0 0 37 61a5.13 5.13 0 0 1-2.18.7 3.32 3.32 0 0 0-.66.2l-.41.12-.11-.33.23-.1 1.62-.42a2.92 2.92 0 0 0 1.51-.68 4 4 0 0 0 1.19-.55 2.48 2.48 0 0 0 1-1 2.75 2.75 0 0 1 .57-.76 2.44 2.44 0 0 0 .84-1.39 10.51 10.51 0 0 0 .4-2.26 2.5 2.5 0 0 0-.3-1.51c-.29-.54-.52-1.11-.77-1.66a.48.48 0 0 1 .06-.6c.38.84.77 1.59 1.12 2.36l.27 1v.66a.07.07 0 0 0 0 .06z" class="cls-22"/><path d="M40.87 59.7c0 .08 0 .2-.06.25s-.14.33-.09.54c.08.38.12.77.17 1.16v.15c-.41.45-.3 1-.43 1.57 0 .14 0 .29-.21.32a.92.92 0 0 1 0-.16c0-.55 0-.55-.58-.54a1.25 1.25 0 0 1-.9-.62.45.45 0 0 1 .12-.53c.32-.27.69-.51.73-1 0-.2.31-.39.49-.59l.22.28.25-.77z" class="cls-8"/><path d="M45.37 53.29a1.35 1.35 0 0 0 .81-.72 12.64 12.64 0 0 0 1.1-2.66 7.64 7.64 0 0 0 .3-1.57l-.15-1 .36-.07h.19a6.81 6.81 0 0 1-.17 2 14.42 14.42 0 0 1-.87 2.73 6.78 6.78 0 0 1-.52.86l-.39.63a3.54 3.54 0 0 0-1.1.9c-.06.09-.23.11-.35.16-.07-.37.26-.54.42-.8s.25-.29.37-.46z" class="cls-16"/><path d="M34.16 61.85a3.32 3.32 0 0 1 .66-.2A5.13 5.13 0 0 0 37 61a3.3 3.3 0 0 1 .64-.26c0 .2.11.41.17.63l-.39.34.64.05v.57a.35.35 0 0 0-.3.39.44.44 0 0 1-.45.48l.34-1c-.25 0-.44-.11-.58 0-.44.18-.93.12-1.37.29a1 1 0 0 0-1.06-.54.836.836 0 0 0-.48-.1z" class="cls-7"/><path d="M41.35 54.08l-.27-1c.07 0 .17 0 .18-.1.09-.24.16-.49.25-.78l-.59-.8.35-.14v-.38a3.43 3.43 0 0 0 .51.69c.24.19-.09.6.31.7-.11.35.18.56.34.85l.15-.48.23.1v.31c-.32.08 0 .29-.09.44-.36.12-.38.49-.54.76-.29-.03-.52-.25-.83-.17z" class="cls-11"/><path d="M37.31 66.61c.07-.07.2-.13.2-.19 0-.39.21-.48.55-.47a.54.54 0 0 0 .22-.1h.53a1.51 1.51 0 0 0-.23 1 .65.65 0 0 1-.13.45c-.18.2-.11.39-.06.59h-1.93a.75.75 0 0 1-.25-.09h.21c.52 0 .57-.08.68-.6a4 4 0 0 1 .21-.59z" class="cls-19"/><path d="M42.7 53.53c0-.15-.23-.36.09-.44l.21.21.14-.31h.18a4.41 4.41 0 0 0 0 .66.26.26 0 0 0 .22.15c.08 0 .16-.11.2-.19s0-.22 0-.31.19-.13.29 0 0 .36 0 .53-.24.37-.36.29-.47 0-.73 0zm-1.35.55c.31-.11.54.14.81.21l.31.4-.64.34c-.1-.23-.26-.37-.52-.29v-.23l.16-.11-.14-.12zm2.18 2.7a3.2 3.2 0 0 1-.37-.29.28.28 0 0 1 0-.23.25.25 0 0 1 .21-.08 1.61 1.61 0 0 1 .36.13z" class="cls-7"/><path d="M41.18 59.05c0 .23.13.54-.29.53 0-.23.01-.46.29-.53zm-1.07 5.28c0 .19.23.42-.11.54-.12-.22-.2-.42.11-.54z" class="cls-8"/><path d="M41.23 55.37l.07-.57c.3.2.29.31-.07.57z" class="cls-7"/><path d="M40.12 65.33h.28l-.06.33z" class="cls-8"/><path d="M38.83 64.11l.4.23c-.39.14-.4 0-.41-.22z" class="cls-21"/><path d="M40.34 64l-.22.22z" class="cls-8"/><path d="M45.62 34a4.15 4.15 0 0 0 .34.24 1 1 0 0 0 .66.24 3.56 3.56 0 0 1 1.07.26l-.26.75h.76l-.29.38-.1.1v.11c-.43-.31-.9 0-1.36 0v-.28l-.89.34a3.78 3.78 0 0 0 0-1.64 1.31 1.31 0 0 1 .07-.5z" class="cls-5"/><path d="M48.21 29.85c.08-.22 0-.5.19-.68v-.21c0-.5-.11-1-.09-1.5a1.5 1.5 0 0 0-.43-1 .47.47 0 0 0-.54-.14L47 26.1c.55-.33.74-.27 1.18.2a1.75 1.75 0 0 1 .48 1.09 11.86 11.86 0 0 1-.19 3.52c-.3.11-.28-.11-.28-.28s.03-.52.02-.78z" class="cls-7"/><path d="M37.31 66.61a4 4 0 0 0-.21.58c-.11.52-.16.58-.68.6h-.21c-.31 0-.64-.07-1-.14-.5-.12-1-.25-1.49-.42a8.4 8.4 0 0 1-2.61-1.66 20 20 0 0 1-2.39-2.39l-1.12-1.32h.52a2.59 2.59 0 0 0 .6-.39 2.57 2.57 0 0 0 .29-.6h.72l1.2 1.13.24.33c-.06.18.08.22.2.26s.38.15.56.25.48.27.72.42c.44.28.89.54 1.31.84a.64.64 0 0 1 .33.58c0 .2.14.22.3.22-.05.13-.09.26-.14.42h.27v.62c.23.18.6.22.66.6l-.42.06.43.34.32-.2.68-.27.22.32c.26-.04.39-.49.7-.18z" class="cls-10"/><path d="M29 60.9a2.57 2.57 0 0 1-.29.6 2.59 2.59 0 0 1-.6.39h-.52l-.85-1.06-1.08-1.4a1.63 1.63 0 0 0-.2-.17l-.5-.85c0-.38 0-.77-.05-1.15.06.07.16.13.18.21a1.93 1.93 0 0 1 0 .42c.14-.29.3-.57.1-.87v-.32c.1 0 .24.08.29.16.2.34.35.71.57 1 .41.6.86 1.18 1.3 1.76 0 .05.13.05.19.08l.17.15.05-.08-.2-.09-.7-1.25c.06-.21 0-.47.26-.58h.12l.1.11a.36.36 0 0 0 0 .1c0 .29 0 .58.37.72a.29.29 0 0 1 .12.16 1.59 1.59 0 0 0 .85 1.16c.07 0 .08.16.14.22a.68.68 0 0 0 .22.12v.1l-.52.07v.1z" class="cls-5"/><path d="M21.9 43.28c.32-.15.22-.45.16-.66a2.28 2.28 0 0 1 .38-1.94 2.3 2.3 0 0 0 .18-.43 3.11 3.11 0 0 1 .1.61 2.13 2.13 0 0 0 .69 1.87.54.54 0 0 1 .17.37 2.16 2.16 0 0 1 0 .67 2.85 2.85 0 0 0 .39 1.67c0 .1.18.16.27.24s-.19.34 0 .57l.27-.4c0 .24 0 .53.32.65.11.23.22 0 .33 0l.24.43-.35.53a1.07 1.07 0 0 1-.16.14l.07.06.12-.17.53-.55h.32c0 .18-.05.41.24.46a4.09 4.09 0 0 0-.39.44 6.41 6.41 0 0 0-.4.61 1.17 1.17 0 0 0-.52 1.11l.54-1.1.2-.11.12.75-.33.49c-.12.2-.25.39-.36.6s0 .19.13.19a1.18 1.18 0 0 1 0 .42c0 .1-.14.16-.21.24-.17-.52-.31-1.06-.53-1.56s-.64-1.22-.93-1.85a7.71 7.71 0 0 1-.95-2.63.76.76 0 0 1 0-.37c.14-.34 0-.53-.28-.72s-.4-.32-.36-.63z" class="cls-16"/><path d="M24.88 51c.07-.08.19-.14.21-.24a1.18 1.18 0 0 0 0-.42l.46-.66.76.26-.22.21a.84.84 0 0 0-.14-.06c-.24-.06-.35.1-.38.28s.14.19.28.2a6.48 6.48 0 0 0-.34 1.49l.17-.1a8.88 8.88 0 0 0 .91 1.27c.19.23.35.48.53.72l.41.56-.26.39c0 .18-.1.16-.22.11l-.11-.33a2.36 2.36 0 0 0-.7-1.35l-.61.51c-.06-.07-.16-.12-.17-.19-.2-.84-.39-1.73-.58-2.65z" class="cls-18"/><path d="M27.4 58.06a.36.36 0 0 1 0-.1l-.1-.11h-.12l-.08-.23c-.13-.47-.24-.94-.4-1.4-.05-.14-.25-.22-.38-.32s0-.22 0-.32l.44-.37c-.08.37-.07.63.28.69v.12c0 .36.25.5.52.63 0 .17.08.35.1.52a.79.79 0 0 0 .39.59 4 4 0 0 1 .78.71.56.56 0 0 1 .12.34v.67a3.92 3.92 0 0 1-.32-.25c-.37-.41-.63-.97-1.23-1.17z" class="cls-24"/><path d="M27 55.9c-.35-.06-.36-.32-.28-.69l-.44.37a2.08 2.08 0 0 1-.69-1.7l.61-.51a2.36 2.36 0 0 1 .7 1.35c-.17.17-.13.28.11.33z" class="cls-16"/><path d="M27.08 57.62l.08.23c-.27.11-.2.37-.26.58a2.57 2.57 0 0 1-.4-.41 8.55 8.55 0 0 1-.59-1.02 2 2 0 0 1-.38-1c.24 0 .47 0 .56.29s.24.23.42.26l.21.62c-.15.18-.11.29.11.34a.19.19 0 0 0 .25.11z" class="cls-15"/><path d="M25.53 55.92a2 2 0 0 0 .38 1A8.55 8.55 0 0 0 26.5 58a2.57 2.57 0 0 0 .4.41l.7 1.25c-.06 0-.15 0-.19-.08-.44-.58-.89-1.16-1.3-1.76-.22-.32-.37-.69-.57-1-.05-.08-.19-.11-.29-.16l-.25-.8.33-.06z" class="cls-3"/><path d="M27.08 57.62a.19.19 0 0 1-.25-.19l-.11-.34-.21-.62-.21-.57c.13.1.33.18.38.32.16.46.32.93.4 1.4z" class="cls-5"/><path d="M25.05 54.52c-.21-.09-.15-.28-.16-.44a.29.29 0 0 1 .16.44z" class="cls-3"/><path d="M25.21 55.37l-.09-.22c.14.02.26.06.09.22z" class="cls-15"/><path d="M47 26.1l.32.22-.5.44-.74-.47c.34-.36.66-.21.92-.19z" class="cls-11"/><path d="M42.71 39.38v.55a1.88 1.88 0 0 1-1.71.88 7.45 7.45 0 0 0-.91-.3c-.46-.09-.91-.39-1.36-.07-.12-.16-.19-.34-.31-.4-.4-.21-.81-.37-1.22-.55l-.31-.11a3.07 3.07 0 0 0-.29-.34c-.23-.21-.48-.38-.69-.59-.46-.46-.82-1-1.56-1.14h.33c-.17-.13-.41-.25-.52-.18a.49.49 0 0 1-.59.05 2.65 2.65 0 0 1-.44-.33 2.52 2.52 0 0 1-.55 0c-.4-.11-.78-.29-1.18-.36a11.51 11.51 0 0 0-1.31-.08c0-.21.06-.34.29-.34h.53c.31 0 .4-.14.36-.45s-.08-.41-.12-.62v-.41h.18c-.16.5.46.74.42 1.21 0 0 .16.05.24.07l.43.11h.09a2 2 0 0 0 .44.27c.54.16 1.09.29 1.64.43.18.22.32.06.43-.07a3.18 3.18 0 0 0 .26-.47.75.75 0 0 1 0 .67.36.36 0 0 0 .09.43c.39.37.73.79 1.15 1.12a13.23 13.23 0 0 0 1.67 1.13 3.16 3.16 0 0 0 .93.22 2.92 2.92 0 0 0 .47.23c.49.15 1 .27 1.48.41a.87.87 0 0 0 1.08-.64l.2-.15zm-10.38-2.82l.06-.1-.26-.08v.07zm1.3.37V37h.21v-.06z" class="cls-2"/><path d="M34.89 32.47a.42.42 0 0 1 .45.31.23.23 0 0 0 .35.12l.34.44a.85.85 0 0 0 .33.84 9.89 9.89 0 0 1 1.28 1.31.85.85 0 0 1-1-.09s-.14-.1-.19-.08c-.45.18-.73-.16-1.07-.32h-.11c-.14.28.25.37.23.67h-1.11l-.33-.41c-.07-.33-.14-.66-.2-1l.64.42v-.58a2.25 2.25 0 0 0 .61-.8l-.1-.09-.61.67s-.08-.11-.07-.13a1.84 1.84 0 0 0 .17-1.3z" class="cls-19"/><path d="M41.1 40.35c-.5-.14-1-.26-1.48-.41a2.92 2.92 0 0 1-.47-.23c-.11-.21-.22-.41-.32-.62-.25-.54-.08-.89.51-1h.16c.09.1.19.2.28.31a5.78 5.78 0 0 0 1.42 1.37z" class="cls-4"/><path d="M33.86 34.29c.06.33.13.66.2 1-.19.18-.07.36 0 .54-.23 0-.38.37-.63.14v-.37c0-.12-.08-.07-.12-.08-.3 0-.38-.14-.23-.45s0-.63-.36-.88c-.07 0-.1-.13-.14-.2a1.43 1.43 0 0 1 .36 0c.29.1.66.01.92.3z" class="cls-21"/><path d="M41.2 39.73a5.78 5.78 0 0 1-1.42-1.37c-.09-.11-.19-.21-.28-.31s-.34-.23-.17-.52l.45.34.22.13 1.38 1.6z" class="cls-13"/><path d="M37.64 35.49a9.89 9.89 0 0 0-1.28-1.31.85.85 0 0 1-.33-.84h.08l.22.2.1.1.1.1.1.1.09.11 1.59 1.87a.65.65 0 0 1-.67-.33z" class="cls-24"/><path d="M33.41 35.59v.37c.25.23.4-.17.63-.14.13.23.11.57.49.62 0 0 0 .16.06.24-.55-.14-1.1-.27-1.64-.43a2 2 0 0 1-.44-.27l.18-.27z" class="cls-11"/><path d="M36.33 33.55l-.22-.2zm.21.22l-.1-.1zm.11.11l-.1-.1zm.1.12l-.09-.11zm-.31-.34l-.1-.1z" class="cls-19"/><path d="M41.4 63.36l-.82 1.74a2.21 2.21 0 0 1 .82-1.74z" class="cls-8"/><path d="M37.44 16.5a.29.29 0 0 1 0 .09H37l-.55-.59c-.1 0-.38 0-.44.13a13.15 13.15 0 0 0-.64 1.37l-.21.05-.43-.52.34-.16-.47-.43c0-.23-.08-.49.2-.67.07-.05 0-.26.05-.4H35c.14.21.31.26.6.08l-.37-.43a1.11 1.11 0 0 1 .34-.14c.38-.05.73-.14.86-.62l.56.29.19-.44c.22 0 .39 0 .44.29l-.17.13.15.09c-.15.32-.33.63-.46.95s0 .35.25.25a1.4 1.4 0 0 0 0 .34 1.29 1.29 0 0 0 .05.34z" class="cls-21"/><path d="M37.41 15.85c-.26.1-.35 0-.25-.25s.31-.63.46-.95v-.22c.23 0 .25-.23.3-.39a5.76 5.76 0 0 0 .36-1.04c.08-.63.09-1.26.12-1.9v-.7l.54.39.06.4a2.68 2.68 0 0 0-.15 1.16 5.32 5.32 0 0 1-.75 2.48c-.24.33-.47.67-.69 1.02z" class="cls-13"/><path d="M35.26 15.06l.37.43c-.29.18-.46.13-.6-.08s.03-.32.23-.35z" class="cls-19"/><path d="M48.42 43.6v.21a1.28 1.28 0 0 0-.16.36s.09.12.14.18l-.07 1.2a1 1 0 0 0-1.07.25h.61l-.2.58-1.06 1.11c.15.35-.06.57-.35.75l-.26-.48c.33-.14.09-.36 0-.56l.48-.12c-.24-.3-.06-.48.12-.66s.25-.19.07-.34v-.78c.46.12.46.12.67-.3.14-.2.29-.39.41-.6A.89.89 0 0 0 48 44c0-.08-.19-.16-.27-.23l.11-.69c.2-.2.3 0 .44.1-.09.17-.2.4.14.42zM47 46.79h-.08a.41.41 0 0 1 0 .07.45.45 0 0 0 .08-.07z" class="cls-13"/><path d="M47 39.17v.21c0 .07-.13.14 0 .22-.13.58-.27 1.16-.4 1.74h-.15v-.78c-.37 0-.35-.34-.33-.59 0-.44-.23-.87 0-1.31 0-.06 0-.16-.06-.25a3.38 3.38 0 0 1-.08-.34 1.17 1.17 0 0 0-.5-.84l.12-.43c.38-.12.54.26.79.4.27-.37.27-.37.55-.32v.67a1 1 0 0 1-.05.76 1.65 1.65 0 0 0-.12.72s.23.09.23.14z" class="cls-10"/><path d="M47 39.17c-.07-.05-.19-.11-.19-.15a1.65 1.65 0 0 1 .19-.72 1 1 0 0 0 .05-.76v-.67c-.28 0-.28 0-.55.32-.25-.14-.41-.52-.79-.4l-.18-.1v-.34l.11-.21.89-.34v.32c.46.05.93-.29 1.36 0a5.64 5.64 0 0 1-.89 3.05z" class="cls-19"/><path d="M47.79 43.06l-.11.69c.08.07.26.15.27.23a.89.89 0 0 1-.17.42c-.12.21-.27.4-.41.6l-.63-.31c-.07-.21-.21-.44-.16-.51.3-.35 0-.37-.21-.49l.12-.53c.44 0 .53.26.51.68.39-.29.15-.66.27-.82l-.44-.84c.37 0 .41.44.65.63z" class="cls-16"/><path d="M46.83 42.18l.44.84c-.12.16.12.53-.27.82 0-.42-.07-.71-.51-.68 0-.24-.05-.49-.08-.73l-.12-.89h.32c0 .17-.09.36.16.45z" class="cls-18"/><path d="M48.42 43.6c-.34 0-.23-.25-.19-.44l.23.21c-.01.07-.03.15-.04.23z" class="cls-21"/><path d="M46.77 42c-.25-.09-.15-.28-.16-.45.28.05.19.25.16.45zm-.16-.47h-.32a.41.41 0 0 1 0-.11v-.1h.36z" class="cls-16"/><path d="M47 39.6c-.12-.08-.11-.15 0-.22a1.55 1.55 0 0 1 0 .22z" class="cls-19"/><path d="M47.79 36l.1-.1z" class="cls-6"/><path d="M23.48 38.3h-.3c.17-.24.29-.57.52-.7a14.11 14.11 0 0 0 1.94-1.67 7.59 7.59 0 0 1 .65-.46l.22-.05h1.09c.33.11.68.21 1 .34.49.19 1 .41 1.47.61a4.8 4.8 0 0 0 1.94 1 4.26 4.26 0 0 1 .71.35A15 15 0 0 0 35 39a2.92 2.92 0 0 1 .66.51c.25.25.46.53.69.8a3.29 3.29 0 0 0 .08.63c.26.86.52 1.72.81 2.56.15.42.35.82.53 1.23l.12.21.18.45a.29.29 0 0 0 0 .09 1.06 1.06 0 0 0 0 .26.58.58 0 0 1-.16.72.64.64 0 0 1-.78.14 3.65 3.65 0 0 0-.57-.14 7.84 7.84 0 0 1-2.16-1 .58.58 0 0 1-.19-.19c-.53-.74-1.08-1.46-1.59-2.22a1.26 1.26 0 0 0-.92-.65 3.79 3.79 0 0 1-1.7-.73l-.68-.54-.46.58c.19.39-.12.54-.37.65a3.09 3.09 0 0 0-1 1 2.48 2.48 0 0 1-.36.28.85.85 0 0 1 0-.32c.22-.46.45-.93.68-1.39 0-.06.14-.1.21-.15L29 41l-.26-.33-.13-.52h.12l.22.33h.09v-.54h.17a.12.12 0 0 0 0 .08 1 1 0 0 0 .73 1 2.58 2.58 0 0 1 .32.18 2.7 2.7 0 0 0 1.71.49c.23 0 .39-.14.38-.42a.51.51 0 0 1 .18-.55v.71c0 .2.06.34.09.52.26.41.51.84.79 1.24s.41.53.62.8c.28.48.52 1 1.17 1.13a.72.72 0 0 1 .35.22 1.21 1.21 0 0 0 .86.37l.26.06h.17a1.22 1.22 0 0 0 .4.22.55.55 0 0 0 .41-.13s0-.24-.1-.36a4.21 4.21 0 0 1-.42-.78 2.35 2.35 0 0 0-.41-1c-.1-.31-.06-.68-.42-.86 0-.14-.06-.27-.1-.41-.1-.37-.22-.74-.33-1.1s-.27-.77-.41-1.15a1.59 1.59 0 0 0-1.21-1h-.08l-.45-.3c-.35-.24-.7-.49-1.07-.7a7.74 7.74 0 0 0-.88-.37h-.1l-.75-.42-1.63-.87a7.15 7.15 0 0 0-1.16-.54 9.36 9.36 0 0 0-1.3-.08h-.3a1.12 1.12 0 0 0-.38.07 8.73 8.73 0 0 0-.73.61 2.07 2.07 0 0 0-.22.35v.07l-.2.14-.54.44a1.94 1.94 0 0 0-.98.7z" class="cls-2"/><path d="M31.37 30.73l.24.2-.59.22c0 .2.15.42.09.59a1.34 1.34 0 0 0 0 .72 8.07 8.07 0 0 0-1.28-.26.76.76 0 0 1-.68-.38c0-.06-.07-.14-.13-.16a.44.44 0 0 0-.3 0c-.05 0-.05.18 0 .28s.09.11.12.17c.12.23.23.47.38.8-.34-.09-.58-.15-.79.06h-.26a.84.84 0 0 0-1 .67h-.31l-.11-.16-.12.15-.52.36a.66.66 0 0 0-.57.49l-.51.27c-.22 0-.31.1-.34.29l-.12.11h-.21a.55.55 0 0 0-.39-.57 1.16 1.16 0 0 0 0-.18 2 2 0 0 0 1-1 4.85 4.85 0 0 1 .78-1.38.94.94 0 0 0 .26-.94c0-.09.07-.22.13-.38.19.17.29.47.6.26-.09-.46.15-.73.63-.87l-.28-.52.79.19c.15-.11.31-.31.46-.3a4.08 4.08 0 0 1 1.3.22 6.57 6.57 0 0 1 1 .66c.21.16.48.26.73.39zM28.69 30c-.14.46-.07.72.28.91-.09-.32.03-.65-.28-.91z" class="cls-18"/><path d="M27.15 33.64a.84.84 0 0 1 1-.67c.09 0 .22.05.26 0 .21-.21.45-.15.79-.06-.15-.33-.26-.57-.38-.8 0-.06-.12-.11-.12-.17v-.28a.44.44 0 0 1 .3 0c.06 0 .1.1.13.16a.76.76 0 0 0 .68.38 8.07 8.07 0 0 1 1.28.26l.21.22c0 .22.08.43.11.64-.14-.09-.3-.17-.43-.27s-.33-.28-.54-.23c0 .16.07.32 0 .41s-.65.29-.87.21-.37-.1-.42.22a1.23 1.23 0 0 1-.38.64l-.29-.3z" class="cls-16"/><path d="M30.08 36.36c-.49-.2-1-.42-1.47-.61-.33-.13-.68-.23-1-.34v-.56c.22-.16.56.21.64-.23h.21c.13.13.3.38.38.36.28-.08.33.16.52.26l1.07-.4.38.28.34-.19c0 .21.09.41.12.62s-.05.42-.36.45h-.53c-.24 0-.32.15-.3.36z" class="cls-11"/><path d="M28.45 34.64h-.21l.24-.65.36.33a1.23 1.23 0 0 0 .38-.64c.05-.32.12-.34.42-.22s.77 0 .87-.21 0-.25 0-.41c.21 0 .37.1.54.23s.29.18.43.27l.11.23-.21.63-.23.11a2.69 2.69 0 0 1-.62.11 1.13 1.13 0 0 0-.9.32 1 1 0 0 0-1.18-.1zm-2.93-.15a.66.66 0 0 1 .57-.49c-.07.4.31.25.49.39a.45.45 0 0 1-.54.21zm-1.58.12a.55.55 0 0 1 .39.57.46.46 0 0 1-.39-.57zm.73.44c0-.19.12-.32.34-.29-.01.24-.13.31-.34.29z" class="cls-12"/><path d="M26.61 33.64l.12-.15.11.16z" class="cls-16"/><path d="M26.51 35.41l-.22.05c.04-.15.11-.22.22-.05z" class="cls-11"/><path d="M24.34 35.19h.21l-.06.17z" class="cls-12"/><path d="M30.83 21.88c.27.45.76.43 1.19.55l-.32.27.17.3-.23.2c-.2-.07-.36-.15-.53-.19s-.12.09-.18.14l-.39.15.05.09a1.41 1.41 0 0 1 0 .21.74.74 0 0 0 .46.9l.08.7-.54-.1-1.35-.72c-.37-.2-.44-.38-.37-.81s.32-.38.59-.42h.16l.44.15c-.23-.49.08-.58.37-.68a2.5 2.5 0 0 0 .33-.17l-.16-.6z" class="cls-25"/><path d="M30.61 25.13l.54.1c.35.18.24.51.19.76a1.91 1.91 0 0 0 0 1 .38.38 0 0 1 0 .3c-.18.19-.08.35 0 .53l-.5.13v-.08c-.22-.07-.44-.16-.67-.21s-.73-.16-1.1-.23c.08-.26.29-.3.51-.31s.46 0 .69 0 .41-.07.44-.35a4.59 4.59 0 0 1 .1-.51V26c.19-.18 0-.24-.11-.32v-.12c.2-.18 0-.23-.1-.32s.01-.07.01-.11z" class="cls-16"/><path d="M30.62 21.87l.16.6a2.5 2.5 0 0 1-.33.17c-.29.1-.6.19-.37.68l-.44-.15a2.9 2.9 0 0 0 0-.51.89.89 0 0 1 .75-1c.09.03.16.15.23.21z" class="cls-20"/><path d="M30.72 25.67c.12.08.3.14.11.32zm-.1-.44c.11.09.3.14.1.32z" class="cls-17"/><path d="M30.54 23.3l.39-.15a1.92 1.92 0 0 0 1.07.45l-.11.42v.06c-.22-.1-.45-.18-.66-.29s-.42-.24-.63-.37a.09.09 0 0 0-.06-.12z" class="cls-3"/><path d="M27.7 27.3s.08-.1.11-.1l1.08.18c-.43.38-.81.07-1.19-.08z" class="cls-16"/><path d="M35.37 17.54a13.15 13.15 0 0 1 .63-1.37c.06-.12.34-.1.44-.13l.56.56c-.11.33-.22.65-.32 1l-.34.08z" class="cls-23"/><path d="M35.68 24.47v.77a.13.13 0 0 0 0 .09l-.24.58c-.1.23-.19.47-.3.76l.24.14c0 .36-.07.67-.48.86a.53.53 0 0 0-.21.63c0 .06 0 .17-.08.24l-.58-.28c0-.22-.08-.48.24-.58 0-.44.48-.82.15-1.32.33-.08.25-.34.25-.56s0-.5.35-.47v-.57z" class="cls-5"/><path d="M36.57 30.2l.62-.32c0 .08.07.15.06.23s0 .42 0 .6l1 .76c.18.43.53.78.55 1.28l-.34.23c-.18-.2-.36-.41-.54-.6l-.65-.05v-.11l.35-.28c-.14-.21-.26-.41-.4-.59a1.48 1.48 0 0 0-.26-.24.87.87 0 0 1-.39-.91z" class="cls-12"/><path d="M34.94 30c-.18.18-.33.13-.5 0s-.39-.35-.59-.52c0-.15 0-.3-.07-.45a.38.38 0 0 1 .29-.51c.12.34.44.45.73.6.06.26-.3.63.14.88zm.54.52c-.36 0-.31-.3-.34-.54l.44-.33z" class="cls-5"/><path d="M37.32 28.8l-.66.33a.64.64 0 0 1 .66-.33z" class="cls-26"/><path d="M47.71 46.4l.2-.58h-.61a1 1 0 0 1 1.07-.25l.07-1.2H49a1.23 1.23 0 0 0 0 .19v.08l-.19 1.72-.16.12c-.15-.15.09-.49-.32-.53a2.3 2.3 0 0 1-.18 1.11 1.08 1.08 0 0 1-.23.18h-.19c0-.16-.14-.31 0-.49s.2-.29-.02-.35z" class="cls-21"/><path d="M46.84 53.3l.08.25h-.08v-.24zm-.04.03l-.11-.33c0 .11.08.21.11.32zm-.11-.33v-.08h.07zM31.91 24l.09-.4.75.1.1.07c0 .34-.22.26-.41.27z" class="cls-26"/><path d="M35.05 7.63c0-.14.08-.29.11-.43.19 0 .27-.13.33-.3a2.23 2.23 0 0 1 .21-.41c.34 0 .32.5.67.27a1.07 1.07 0 0 1 0 .25c0 .48-.09 1-.14 1.45a3.63 3.63 0 0 1-.39 1.64c-.5-.15-.46-.56-.37-.85s-.15-.69.2-.87l-.27-.81z" class="cls-8"/><path d="M36.26 8.46c.05-.48.1-1 .14-1.45a1.07 1.07 0 0 0 0-.25c0-.33-.07-.67-.11-1a.38.38 0 0 1 .48.36 8.45 8.45 0 0 1 .03 1.18 6.71 6.71 0 0 1-.18 1.06c-.1.1-.18.28-.36.1z" class="cls-13"/><path d="M32.77 23.7l-.77-.1a1.92 1.92 0 0 1-1.09-.45c.06 0 .13-.15.18-.14s.33.12.53.19l.23-.2-.17-.3.32-.27.32-.11h.44c0 .2.08.39.33.43-.09.32-.21.64-.32.95zm1.32-2.58c.13.18 0 .26-.12.33z" class="cls-10"/><path d="M45.42 36.35v.34l-.13.12-.1.11-.14.41-.33.27-.87-.39.1-.43-.44-.62c.48.07 1-.1 1.45.19.14.06.32 0 .46 0z" class="cls-7"/><path d="M31.37 30.73c-.25-.13-.52-.23-.75-.38a6.57 6.57 0 0 0-1-.66 4.08 4.08 0 0 0-1.3-.22c-.15 0-.31.19-.46.3l-.79-.19c.12-.06.25-.19.37-.17.48.05.88-.29 1.4-.18A19.91 19.91 0 0 1 31 30c.05.1.11.2.15.3s.16.3.22.43z" class="cls-12"/><path d="M40.22 34.73c.21.07.43.14.64.23a.48.48 0 0 1 .34.49c0 .35.14.48.47.49a.91.91 0 0 1 .3.11l-.7 1c-.72-.55-1.24-1.27-1.91-1.82v-.53a1.54 1.54 0 0 1 .86.03zm1.17 1.48z" class="cls-8"/><path d="M41.2 39.73l.2-.13L40 38c.33-.43.38-.45.72-.1s.82.88 1.21 1.34a1.71 1.71 0 0 1 .23.47.87.87 0 0 1-1.08.64z" class="cls-6"/><path d="M25 58.38l.5.85c-.1 0-.26-.07-.29-.14a.72.72 0 0 0-.31-.44c-.18-.09-.07-.21.1-.27zm.22-1.38c.2.3 0 .58-.1.87a1.93 1.93 0 0 0 0-.42c0-.08-.12-.14-.18-.21-.05-.24.11-.24.28-.24z" class="cls-3"/><path d="M26.53 36h.3l.64.11a1.69 1.69 0 0 1 0 .32c0 .22.1.32.32.32l.11.09c0 .3-.21.13-.35.12-.41 0-.52.06-.43.47a.76.76 0 0 1-.2.79c-.05 0-.06.16-.1.24-.22 0-.35.08-.32.33l-.11.2c-.28.15-.56.27-.83.43s-.29.43 0 .64l.23.23a1 1 0 0 0 .07.25.79.79 0 0 1-.23 1.13 1 1 0 0 0-.32 1 1 1 0 0 1-.3.86.85.85 0 0 0-.19.42c-.05.42.16.6.74.69h.11v.32a1.25 1.25 0 0 0 .11.56 7.27 7.27 0 0 0 .79.78h.1l.57.06.58-.23a2.81 2.81 0 0 0 1.5.4 1.74 1.74 0 0 0 .93.48.2.2 0 0 1 .16.12c.11.48.48.53.87.54 0 .15 0 .3.21.26l1.31 1.45a1.1 1.1 0 0 0 .31.2c.27.12.56.23.84.34.08 0 .18.09.24.06s.33 0 .49.11c.43.24.87.46 1.31.69l.13.1c.47.42.93.88 1.43 1.27a.64.64 0 0 1 .31.57c0 .43.21.84 0 1.27 0 .07.05.17.07.26a5.12 5.12 0 0 1 .19.67 7.31 7.31 0 0 1 .08 1.05 3.87 3.87 0 0 1-.11.68l-.46.28-.22.11.21-1c.16-.56.16-.56-.25-.83l.27-.29c-.55-.78-.07-1.67-.3-2.54-.4.11-.52-.22-.73-.43a1.8 1.8 0 0 0-.39-.34 7.08 7.08 0 0 1-1.81-1.21.63.63 0 0 0-.32-.17 4.28 4.28 0 0 1-2-.78c-.55-.41-1.15-.79-1.24-1.48a8.4 8.4 0 0 1-1.34-.74.89.89 0 0 0-1.12 0 1.56 1.56 0 0 1-1.41-.3h-.21l-.66-.2a1 1 0 0 0-.41-.82c-.37-.21-.67-.55-1.16-.48l-.16-.09-.24.44c-.09-.08-.23-.14-.27-.24a2.85 2.85 0 0 1-.39-1.67 2.16 2.16 0 0 0 0-.67.54.54 0 0 0-.17-.37 2.13 2.13 0 0 1-.69-1.87 3.11 3.11 0 0 0-.1-.61v-.54c.2-.06.24-.17.08-.33a.76.76 0 0 1 .76-1c-.07.09-.12.24-.22.27-.3.12-.3.38-.32.62s0 .42 0 .63v1.61c.3 0 .6 0 .73-.1s.48-.15.71-.16c.44-.71.44-.71.22-1.41l.29-.22a1.69 1.69 0 0 1-.14-.52c0-.2.22-.2.39-.2a1.39 1.39 0 0 0 .92-.48.89.89 0 0 0 .33-1h.57l-.22-.35c-.29-.44-.48-.48-.91-.19a1.35 1.35 0 0 1-.34.11l.48-.46z" class="cls-18"/><path d="M23.48 38.3a1.94 1.94 0 0 1 1-.66 1.6 1.6 0 0 1-.94.79v-.13z" class="cls-18"/><path d="M22.73 39.38c.16.16.12.27-.08.33.02-.11.05-.22.08-.33zm9.02-22.79l.05-.12.07-.13.71-2.44.63.5-.31.6c-.22.44-.46.88-.65 1.33a.42.42 0 0 1-.5.26z" class="cls-16"/><path d="M42.71 39.93v-.21a1.16 1.16 0 0 0 .29-1.27 4.69 4.69 0 0 1-.31-1.11 2.29 2.29 0 0 1 .11-.67c.18 0 .16.19.2.33s.18.44.27.66a2.32 2.32 0 0 1 .06 1.64 2.4 2.4 0 0 1-.35.62z" class="cls-19"/><path d="M31.36 32.68l-.21-.22a1.34 1.34 0 0 1 0-.72c.06-.17-.06-.39-.09-.59l.59-.22c.39.14.78.3 1.18.42.72.21 1.35.62 2.05.88v.24h-.39l-.66-.2a7 7 0 0 0-2-.66l.35.26c-.08.23-.23.2-.36.15-.29-.11-.42.07-.5.27a1.12 1.12 0 0 0 .04.39z" class="cls-25"/><path d="M49.06 44.68v-.08z" class="cls-11"/><path d="M31.87 16.34l-.07.13z" class="cls-10"/><path d="M37.41 15.85c.22-.35.45-.69.66-1a5.32 5.32 0 0 0 .75-2.48 2.68 2.68 0 0 1 .18-1.2.35.35 0 0 1 .28.4q0 .63-.12 1.26c0 .21-.08.41-.12.62-.19 0-.18.17-.17.33a2.08 2.08 0 0 1-.38 1.38c-.3.41-.58.84-.88 1.26 0 0-.09 0-.14.08a1.29 1.29 0 0 1-.08-.31 1.4 1.4 0 0 1 .02-.34zm-.72 1.73c.1-.33.21-.65.32-1h.41a2.11 2.11 0 0 1-.73 1z" class="cls-5"/><path d="M43 39.92a2.4 2.4 0 0 0 .35-.62 2.32 2.32 0 0 0-.06-1.64.46.46 0 0 1 .47-.22v2.58c-.07.08-.18.16-.21.26a5.8 5.8 0 0 0-.17.69.57.57 0 0 0-.61.42 1.38 1.38 0 0 1-.79.69c-.23.09-.32.21-.22.44.31.76.46 1.56.84 2.31.22.44.69.85.47 1.46l.53.18c-.06.64-.06.64.57 1 .1.05.16.17.23.26l-.11.44c-.1 0-.23 0-.28.1a1.82 1.82 0 0 0-.31.56.77.77 0 0 1-.48.53c-.25 0-.57-.12-.56-.31 0-.69-.52-1.14-.71-1.74a4.28 4.28 0 0 0-.48-.89c-.06-.09-.19-.14-.29-.21s0-.14 0-.21l.36-.41v-.77c0-.24-.13-.51-.19-.76l.3-.33a1.82 1.82 0 0 1-.41-1.35.39.39 0 0 0 0-.15l.13-.38a1.49 1.49 0 0 1 .45-.15c.4 0 .6-.38.8-.63a4.29 4.29 0 0 0 .38-1.15zm1 7.89l.14-.08a.63.63 0 0 0-.11-.12.19.19 0 0 0-.1.08s.07.07.07.12z" class="cls-18"/><path d="M43.8 40v-2.58l.11-.23.87.39.33-.27c-.17.64-.35 1.27-.52 1.91 0 .19-.09.38-.13.57a.7.7 0 0 1-.66.21z" class="cls-12"/><path d="M48.42 44.35c-.05-.06-.16-.13-.14-.18a1.28 1.28 0 0 1 .16-.36c.14 0 .23.07.14.23s-.1.21-.16.31z" class="cls-21"/><path d="M35.7 62.38c.44-.17.93-.11 1.37-.29.14-.06.33 0 .58 0l-.34 1c-.08.17-.15.35-.4.31-.25-.27-.32-.27-.45 0-.23.59-.45 1.19-.67 1.79a1.09 1.09 0 0 1-.89-.21c.06-.17.1-.35.16-.51a.9.9 0 0 0 0-.87l.22-.21v-.21a.78.78 0 0 1 .42-.8z" class="cls-12"/><path d="M35.79 65.3c.22-.6.44-1.2.67-1.79.13-.32.2-.32.45 0l-1.14 3a1.1 1.1 0 0 0-.06.26l-.32.19v-.4z" class="cls-4"/><path d="M42.81 52.78l-.23-.1-.15.48c-.16-.29-.45-.5-.34-.85-.4-.1-.07-.51-.31-.7a3.43 3.43 0 0 1-.51-.69v.38l-.35.14.59.8c-.09.29-.16.54-.25.78l-.18.1c-.35-.77-.74-1.52-1.12-2.36a.48.48 0 0 0-.06.6c.25.55.48 1.12.77 1.66a2.5 2.5 0 0 1 .3 1.51 10.51 10.51 0 0 1-.31 2.29 2.44 2.44 0 0 1-.84 1.39 2.75 2.75 0 0 0-.57.76 2.48 2.48 0 0 1-1 1 4 4 0 0 1-1.19.55l-.06-.08c.09-.1.17-.29.26-.29.41 0 .5-.24.51-.59a1.21 1.21 0 0 1 .11-.3 1 1 0 0 0 .63-.93v-.47a3.09 3.09 0 0 0 .43 0 .58.58 0 0 0 .4-.87 4.37 4.37 0 0 1 .11-.63 7.73 7.73 0 0 0 .22-2.87 4.45 4.45 0 0 0-.32-1.34c-.26-.6-.59-1.18-.91-1.76s-.54-.91-.82-1.36a2.4 2.4 0 0 0 .21-.58c0-.36.23-.48.53-.57a7.43 7.43 0 0 0 .94-.32c.12 0 .2-.18.29-.28a.74.74 0 0 0 .51-.63.38.38 0 0 1 .44-.35 3.94 3.94 0 0 0 .46 1.56 1.35 1.35 0 0 0 .25.51 1.67 1.67 0 0 1 .4 1.43c-.06.27.08.39.41.48 0 .25-.1.56.33.58.06 0 .17.13.16.18-.08.39.22.61.43.78a.56.56 0 0 1 .21.68c0 .16 0 .31-.06.47z" class="cls-7"/><path d="M43.26 49.33a.77.77 0 0 0 .48-.53 1.82 1.82 0 0 1 .31-.56c.05-.07.18-.07.28-.1 0 .19.15.22.31.2l.56-.08.38-.51c.13-.19.35-.35.24-.62s0-.46.18-.7.37-.4.7-.35c.18.15 0 .25-.07.34s-.36.36-.12.66l-.51.12c0 .2.29.42 0 .56l.28.47A1.66 1.66 0 0 0 45 49.31a.37.37 0 0 0 0 .21.79.79 0 0 1-.1.81v.33c-.67-.09-.67-.09-.84.43a1.8 1.8 0 0 1 .25.5c0 .09-.14.21-.25.37l-.3-.46-.42.2-.05-.6-.29-.16-.12-.75z" class="cls-24"/><path d="M47.71 46.4c.22.06.24.25.12.36s0 .33 0 .49l-.36.07.15 1c-.25.23-.48.47-.75.68a1.59 1.59 0 0 1-.46.19c-.42-.09-.45-.15-.3-.5.07-.15.15-.3.23-.45.29-.18.5-.4.35-.75z" class="cls-23"/><path d="M43.26 49.33l-.43.86-.75.11.3-.38c0-.13-.06-.25-.08-.37-.06-.3-.3-.57-.14-.93 0-.06-.17-.24-.29-.33a2 2 0 0 0-.44-.21c.35-.18.44-.46.23-.7a2 2 0 0 1-.42-1.18c.1.07.23.12.29.21a4.28 4.28 0 0 1 .48.89c.19.6.72 1 .71 1.74-.03.17.28.3.54.29z" class="cls-16"/><path d="M46.06 49.76v.07h-.05s.05-.04.05-.07z" class="cls-23"/><path d="M35.25 63.26v.21l-.22.21a1 1 0 0 0-.2.26c-.1.29-.17.6-.25.9-.16 0-.31 0-.3-.22a.64.64 0 0 0-.33-.58c-.42-.3-.87-.56-1.31-.84q-.36-.23-.72-.42c-.18-.1-.38-.17-.56-.25h.9c0-.35-.3-.25-.46-.34v-.86a1.31 1.31 0 0 1 .32 0l1.07.08c.24 0 .41-.06.45-.34 0-.08.13-.13.21-.2v.66l-.23.1c-.23.07-.48.13-.71.21s-.34.13-.32.39h.37l.12-.08h.21l1.26.59.08.38z" class="cls-16"/><path d="M35.25 63.26l-.6-.1-.08-.38-1.26-.59.44-.22.41-.12h.48a1 1 0 0 1 1.06.54.78.78 0 0 0-.45.87z" class="cls-13"/><path d="M33.87 61.54v-.66l1.39-.28.33.28-.09.24z" class="cls-12"/><path d="M35.49 61.12l.09-.24h.54v-.59l.64-.13c0 .15 0 .31.21.32l.05.05a2.92 2.92 0 0 1-1.53.59zm-1.74.88l-.44.22h-.21l-.12.08h-.37c0-.26.15-.33.32-.39s.48-.14.71-.21z" class="cls-7"/><path d="M41.34 54.28l.14.12-.16.11z" class="cls-11"/><path d="M42.81 52.78l.33.21-.14.31-.21-.21c.01-.09.01-.2.02-.31z" class="cls-13"/><path d="M33.86 60.88c-.08.07-.2.12-.21.2 0 .28-.21.35-.45.34l-1.07-.08a1.31 1.31 0 0 0-.32 0v.86h-.33c-.16-.33-.2-.35-.55-.22l-1.2-1.11c.05-.24-.22-.2-.29-.33s-.05-.45-.32-.53l-.12-.43c.39.06.48-.3.63-.46.56-.17 1 .17 1.43.24.18-.32.32-.64.13-.94s-.11-.48.18-.64a.25.25 0 0 0 .07-.44v-.11h.34c.16.17.05.53.48.48a3.37 3.37 0 0 0 .23-.54c0-.18 0-.39.08-.56.16-.49.33-1 .53-1.46a.51.51 0 0 1 .36-.27.74.74 0 0 1 .43.25 1 1 0 0 1 .26.44 1.45 1.45 0 0 1 0 .55 1.37 1.37 0 0 1-.16.37l.75.31c-.25.64-.25.64.39.79l.17.47a3.89 3.89 0 0 1 .52-.2 2.6 2.6 0 0 1 .47 0l.1-.73 1-.12a4.65 4.65 0 0 0-.7.85.92.92 0 0 1-.64.51c-.1.25-.28.48-.24.67.07.36-.16.46-.36.67-.19-.26-.4-.4-.7-.29s-.23.36-.23.57l-.71.1.39.27-.37.54z" class="cls-18"/><path d="M35.79 65.3l-.41 1.2c-.06-.38-.43-.42-.66-.6v-.62l.18-.19a1.09 1.09 0 0 0 .89.21z" class="cls-21"/><path d="M34.9 65.09l-.18.19h-.27c0-.16.09-.29.14-.42.08-.3.15-.61.25-.9a1 1 0 0 1 .2-.26.9.9 0 0 1 0 .87c-.04.17-.04.35-.14.52zm-3.42-2.9h.33c.16.09.45 0 .46.34h-.9c-.12 0-.26-.08-.2-.26zm-2.04-1.66c.07.13.34.09.29.33h-.72l-.41-.19v-.1l.52-.07z" class="cls-4"/><path d="M31.48 62.19l-.31.11-.24-.3c.35-.16.39-.14.55.19z" class="cls-16"/><path d="M35.38 66.51v.4l-.38-.34z" class="cls-21"/><path d="M29 59.58l.12.42v.44a.68.68 0 0 1-.22-.12c-.06-.06-.07-.19-.14-.22a1.59 1.59 0 0 1-.85-1.16.29.29 0 0 0-.12-.16c-.34-.14-.35-.43-.37-.72.59.2.86.76 1.26 1.17a3.92 3.92 0 0 0 .32.25z" class="cls-10"/><path d="M29.1 60.44V60c.27.08.29.31.32.53h-.31z" class="cls-24"/><path d="M27.6 59.68l.2.09-.05.08-.17-.15z" class="cls-3"/><path d="M27.28 57.85l.1.11z" class="cls-10"/><path d="M27.27 54.94l.26-.39-.41-.55c-.18-.24-.34-.49-.53-.72a8.88 8.88 0 0 1-.91-1.28c0-.1.06-.2.08-.3s.26-.08.08-.23c.14-.32.27-.65.43-1s.24-.33 0-.52l-.76-.26a2.53 2.53 0 0 0 .18-.42c0-.06-.05-.14-.08-.2l-.12-.75c.31 0 .45-.11.43-.41l.51-.46c.08.14.21.28.21.42a7.55 7.55 0 0 1 0 1.26.9.9 0 0 0 .54 1.05c-.18.38-.37.76-.53 1.15 0 .09 0 .22.06.33-.11.27-.2.54.12.76.07.05.08.19.11.29A2.07 2.07 0 0 0 27.7 54c.33.23.29.51 0 .74a1.56 1.56 0 0 1-.28.16zm-2.67-9.61c.49-.07.79.27 1.16.48a1 1 0 0 1 .41.82.49.49 0 0 0-.63.29h-.2l-.24-.43.42-.4-.09-.09-.67.48c-.3-.12-.27-.41-.32-.65zm1.57 1.3l.66.2c0 .15 0 .3-.18.33s-.39.1-.55.24c-.29 0-.23-.28-.24-.46l.3-.29z" class="cls-9"/><path d="M26.1 47.4c.16-.14.28-.36.55-.24l-.17.31-.51.46-.43.41-.2.11a6.41 6.41 0 0 1 .4-.61 4.09 4.09 0 0 1 .36-.44z" class="cls-7"/><path d="M25.65 49.1c0 .06.1.14.08.2a2.53 2.53 0 0 1-.18.42l-.46.66c-.14 0-.21-.06-.13-.19s.24-.4.36-.6z" class="cls-11"/><path d="M24.6 45.33l-.16.52-.27.4c-.16-.23 0-.39 0-.57l.24-.44z" class="cls-15"/><path d="M25.33 48.46l-.54 1.1a1.17 1.17 0 0 1 .52-1.11zm-.57-1.96l.67-.48.08.08-.42.4c-.09.03-.22.23-.33 0z" class="cls-7"/><path d="M26.16 46.65l-.3.29h-.33a.49.49 0 0 1 .63-.29z" class="cls-11"/><path d="M25.33 46.93h.21l-.53.55zm-.33.56l-.12.17-.07-.06a1.07 1.07 0 0 0 .16-.14z" class="cls-11"/><path d="M27.27 54.94h.11v.54h.92a3.2 3.2 0 0 0 1.51 1.67c.2-.2.26-.37 0-.56a5.51 5.51 0 0 1-.41-.43.39.39 0 0 1-.11-.27.73.73 0 0 0-.14-.71c-.31-.38-.25-.88-.55-1.26s-.14-.53 0-.62.39 0 .55.33c.07.1.1.3.18.31.39.09.5.4.61.7.3 0 .3-.2.38-.35a.43.43 0 0 1 .57-.11c.14.12.31.27.14.5 0 .06 0 .17-.06.28s.17 0 .2 0a4 4 0 0 1 1.59-.59c.64-.11.6-.11.77-.74a2.53 2.53 0 0 1 .72-1.47c.2.31.42.59.59.89s.51.44.72.69a17.82 17.82 0 0 1 1 1.55.8.8 0 0 0 .2.15c.21 0 .3.15.38.32s.15.32.37.32l-.21 1-1 .12-.1.73a2.6 2.6 0 0 0-.47 0 3.89 3.89 0 0 0-.52.2l-.17-.47c-.64-.15-.64-.15-.39-.79l-.75-.31a1.37 1.37 0 0 0 .16-.37 1.45 1.45 0 0 0 0-.55 1 1 0 0 0-.26-.44.74.74 0 0 0-.43-.25.51.51 0 0 0-.36.27c-.2.48-.37 1-.53 1.46-.06.17 0 .38-.08.56a3.37 3.37 0 0 1-.23.54c-.43 0-.32-.31-.48-.48h-.34v.11a.25.25 0 0 1-.07.44c-.29.16-.39.32-.18.64s0 .62-.13.94c-.46-.07-.87-.41-1.43-.24-.15.16-.24.52-.63.46v-.77a.56.56 0 0 0-.12-.34 4 4 0 0 0-.78-.71.79.79 0 0 1-.39-.59c0-.17-.07-.35-.1-.52a.57.57 0 0 0-.52-.63v-.97c.17-.02.27 0 .27-.18z" class="cls-17"/><path d="M26.31 50c.2.19.05.34 0 .52s-.29.65-.43 1l-.08.23c0 .1-.05.2-.08.3l-.17.1a6.48 6.48 0 0 1 .34-1.49l.24-.42z" class="cls-11"/><path d="M26.09 50.19l-.24.42c-.14 0-.33 0-.28-.2s.14-.34.38-.28a.84.84 0 0 1 .14.06z" class="cls-9"/><path d="M27.05 55.05c-.24 0-.28-.16-.11-.33z" class="cls-17"/><path d="M27.07 56a.57.57 0 0 1 .52.63c-.27-.11-.52-.25-.52-.63z" class="cls-16"/><path d="M26.72 57.09l.11.34c-.22-.05-.26-.16-.11-.34z" class="cls-7"/><path d="M37.74 44.68c-.18-.41-.38-.81-.53-1.23-.29-.84-.55-1.7-.81-2.56a3.29 3.29 0 0 1-.08-.63h.67c-.1-.24-.17-.41-.26-.58s0-.23.15-.26l.17.28.14-.17c.41.18.82.34 1.22.55.12.06.19.24.31.4.45-.32.9 0 1.36.07a7.45 7.45 0 0 1 .91.3c0 .2 0 .39-.29.42s-.49-.18-.57-.62c-.22.65-.73.62-1.13.78h-.1c-.14-.29-.4-.11-.6-.15l-.34.12-.56-.26c-.14.21-.26.37-.35.54-.17.38 0 .59.48.57h.09v.62c.43.22.4.18.16.73.34-.12.55 0 .68.38l-.46-.21c-.09.32.05.68-.26.91z" class="cls-27"/><path d="M36.88 39.37c-.15 0-.22.09-.15.26s.16.34.26.58h-.67c-.23-.27-.44-.55-.69-.8A2.92 2.92 0 0 0 35 39a15 15 0 0 1-2.24-1.27 4.26 4.26 0 0 0-.71-.35 4.8 4.8 0 0 1-1.94-1 11.51 11.51 0 0 1 1.31.08c.4.07.78.25 1.18.36a2.52 2.52 0 0 0 .55 0 2.65 2.65 0 0 0 .44.33.49.49 0 0 0 .59-.05c.11-.07.35.05.52.18h-.33c.74.1 1.1.68 1.56 1.14.21.21.46.38.69.59a3.07 3.07 0 0 1 .26.36z" class="cls-4"/><path d="M38.31 41.22c.2 0 .46-.14.6.15h.1c.4-.16.91-.13 1.13-.78.08.44.2.65.57.62s.29-.21.29-.4a1.88 1.88 0 0 0 1.71-.88H43a4.29 4.29 0 0 1-.42 1.07c-.2.25-.4.59-.8.63a1.49 1.49 0 0 0-.45.15 8.64 8.64 0 0 0-2 .16l-.63-.36-.14.36 1 1.48a.72.72 0 0 1 .07.25c-.5-.17-.64-.68-1-1l-.32.12-.56-.73c.25-.25.56-.47.56-.84z" class="cls-7"/><path d="M31.37 34.18l.21-.63h.66c.24.05.28.24.32.44s.07.16.14.2c.36.25.52.53.36.88s-.07.41.23.45c0 0 .08.06.12.08l-.7.12-.18.27h-.09c0-.18-.06-.32-.25-.31s-.12.13-.18.2-.24 0-.24-.07c0-.47-.58-.71-.42-1.21.01-.18.02-.3.02-.42z" class="cls-23"/><path d="M28.45 34.64a1 1 0 0 1 1.17.08 1.13 1.13 0 0 1 .9-.32 2.69 2.69 0 0 0 .62-.11v.66l-.34.19-.38-.28-1.07.4c-.19-.1-.24-.34-.52-.26-.08 0-.25-.23-.38-.36z" class="cls-7"/><path d="M32 35.83c.06-.07.12-.2.18-.2s.26.13.25.31z" class="cls-11"/><path d="M37.2 39.49l-.14.17-.17-.28z" class="cls-4"/><path d="M31.17 34.54v-.25l.23-.11v.37z" class="cls-11"/><path d="M32.33 36.56l-.22-.11v-.07l.26.08zm1.3.37h.21V37h-.21z" class="cls-4"/><path d="M32.56 34c0-.2-.08-.39-.32-.44l-.17-.35c.16-.22.28-.4.42-.56a1.3 1.3 0 0 1 .34-.28c.33-.17.61.08.92.12l.08.35c.08-.25.08-.25-.08-.35l.09-.22.66.2a1.84 1.84 0 0 1-.17 1.3s.05.09.07.13l.1.22v.61l-.64-.42c-.26-.26-.63-.2-.94-.3a1.43 1.43 0 0 0-.36-.01z" class="cls-10"/><path d="M34.5 34.1l-.1-.22c.21-.22.41-.45.61-.67l.1.09a2.25 2.25 0 0 1-.61.8z" class="cls-6"/><path d="M37.64 14.43v.22l-.15-.09z" class="cls-5"/><path d="M46.7 46.08c-.33 0-.49.12-.7.35s-.3.41-.18.7-.11.43-.24.62l-.38.51-.56.08c-.16 0-.29 0-.31-.2l.11-.44a.44.44 0 0 0 .16-.14c.21-.5.41-1 .62-1.51s.48-1.19.75-1.77a3.61 3.61 0 0 1 .4-.59c.16.12.51.14.21.49 0 .07.09.3.16.51l.63.31c-.21.42-.21.42-.67.3z" class="cls-25"/><path d="M47 46.79a.45.45 0 0 1-.11 0 .41.41 0 0 0 0-.07z" class="cls-23"/><path d="M44.44 39.81c0-.19.08-.38.13-.57.17-.64.35-1.27.52-1.91 0-.13.09-.27.14-.41l.1-.11.13-.12.18.1-.12.43a9.47 9.47 0 0 1-.05 1.07 1 1 0 0 0 .06.67 2.21 2.21 0 0 1 .1.46c0 .1 0 .27.06.3.34.17.13.44.13.65a3.26 3.26 0 0 1-.09.53.33.33 0 0 1-.29-.38c.06-.37-.21-.64-.18-1z" class="cls-18"/><path d="M45.73 40.9a3.26 3.26 0 0 0 .09-.53c0-.21.21-.48-.13-.65-.06 0 0-.2-.06-.3a2.21 2.21 0 0 0-.1-.46 1 1 0 0 1-.06-.67 9.47 9.47 0 0 0 .05-1.07 1.17 1.17 0 0 1 .5.84 3.38 3.38 0 0 0 .08.34c0 .09.08.19.06.25-.2.44.05.87 0 1.31 0 .25 0 .61.33.59v.78h-.21l-.52-.12z" class="cls-13"/><path d="M45.73 40.9v.31c-.18.15-.18.28.06.32a1.52 1.52 0 0 0 .46-.1.41.41 0 0 0 0 .11l.12.89c0 .24.05.49.08.73l-.12.53a3.61 3.61 0 0 0-.4.59c-.27.58-.5 1.18-.75 1.77s-.41 1-.62 1.51a.44.44 0 0 1-.16.14c-.07-.09-.13-.21-.23-.26-.63-.33-.63-.33-.57-1l-.53-.18c.22-.61-.25-1-.47-1.46-.38-.75-.53-1.55-.84-2.31-.1-.23 0-.35.22-.44a1.38 1.38 0 0 0 .79-.69.57.57 0 0 1 .61-.42 5.8 5.8 0 0 1 .17-.69c0-.1.14-.18.21-.26a.7.7 0 0 0 .64-.21l.82-.32c0 .39.24.66.18 1a.33.33 0 0 0 .33.44z" class="cls-9"/><path d="M46.28 41.43a1.52 1.52 0 0 1-.46.1c-.24 0-.24-.17-.06-.32l.52.12z" class="cls-18"/><path d="M39.6 47.27c-.09.1-.17.23-.29.28a7.43 7.43 0 0 1-.94.32c-.3.09-.51.21-.53.57a2.4 2.4 0 0 1-.21.58h-.3a3.25 3.25 0 0 1-.89-1 .83.83 0 0 0-.28-.28 5.68 5.68 0 0 0-.7-.22 1.35 1.35 0 0 1-.75-.38 1.52 1.52 0 0 0-.53-.45 4.15 4.15 0 0 1-1.33-1 1.63 1.63 0 0 1-.21-.34 1 1 0 0 1-1.1-.46c-.09-.1-.17-.27-.28-.29-.41-.09-.58-.4-.78-.7l1.52-.64c-.07-.24-.22-.22-.35-.18a6.92 6.92 0 0 0-.76.28c-.53.22-1.07.45-1.59.7-.1 0-.14.22-.2.33l-1.07.53-.03-.05.42-.51h-.63v-.27a4 4 0 0 1-1.46.47 4.71 4.71 0 0 1 .27-.45c.14-.17.31-.34.46-.51a2.48 2.48 0 0 0 .36-.28 3.09 3.09 0 0 1 1-1c.25-.11.56-.26.37-.65l.46-.58.68.54a3.79 3.79 0 0 0 1.75.64 1.26 1.26 0 0 1 .92.65c.51.76 1.06 1.48 1.59 2.22a.58.58 0 0 0 .19.19 7.84 7.84 0 0 0 2.16 1 3.65 3.65 0 0 1 .57.14.64.64 0 0 0 .78-.14.58.58 0 0 0 .16-.72 1.06 1.06 0 0 1 0-.26c.66 0 .8.19.79.86a.27.27 0 0 0 .06.19c.23.16-.07.32 0 .53z" class="cls-14"/><path d="M30.16 41.13a2.58 2.58 0 0 0-.32-.18 1 1 0 0 1-.73-1l.7-.14a5 5 0 0 1-.49-2l1.23.58a6.66 6.66 0 0 1 .72.33c.51.3 1 .64 1.53 1h.28l-.08-.34V39c.22.29.42.41.7.33.07 0 .19.09.28.13.29.14.37.43.49.68a.3.3 0 0 0 .33.2v.12l-.15.24c-.25 0-.36.06-.21.3a7.52 7.52 0 0 0 .5.62 1.23 1.23 0 0 1-.88-.32 1.82 1.82 0 0 0-.45-.29 1.27 1.27 0 0 1-.87-.75c-.58 0-.64 0-.84.51-.07.15-.12.37-.3.31-.46-.17-.94.12-1.44.05z" class="cls-5"/><path d="M23.5 38.43a1.6 1.6 0 0 0 .94-.79.43.43 0 0 0 .56-.44l.2-.14c.14.21.2.13.24-.06h.07a1.35 1.35 0 0 0 .34-.11c.43-.29.62-.25.91.19l.22.35h-.57a.89.89 0 0 1-.33 1 1.39 1.39 0 0 1-.92.48c-.17 0-.37 0-.39.2a1.69 1.69 0 0 0 .14.52l-.29.22c.22.7.22.7-.22 1.41-.23 0-.48-.07-.71.16s-.43.07-.73.1v-2.15c0-.21 0-.5.32-.62.1-.08.15-.23.22-.32z" class="cls-9"/><path d="M39.6 47.27l-.67-.27c-.09-.21.21-.37 0-.53a.27.27 0 0 1-.06-.19c0-.67-.13-.82-.79-.86a.29.29 0 0 1 0-.09l.12-.33-.34-.12-.12-.21c.31-.23.17-.59.25-.91l.48.15c-.13-.37-.34-.5-.68-.38.24-.55.27-.51-.16-.73v-.62l.2-.12.56.73.32-.12c.32.35.46.86 1 1v.2a.4.4 0 0 0 .42.43c0 .15 0 .29.18.33v.19c0 .23-.09.45-.12.68s.1.32.32.31v.42a.38.38 0 0 0-.44.35.74.74 0 0 1-.47.69z" class="cls-11"/><path d="M34.69 40.71l.15-.24a1.17 1.17 0 0 1 .27.15c.24.23.46.47.69.71s.23.73.33 1.1c0 .14.07.27.1.41l-.52.12c-.15 0-.23 0-.23.2l-.11.1h-.08c-.21-.17-.58-.08-.69-.41h-.1c-.28-.08-.57-.15-.85-.24a.35.35 0 0 1-.19-.17c-.12-.49-.49-.54-.9-.55 0-.18-.07-.35-.09-.52s0-.41 0-.71a.51.51 0 0 0-.18.55c0 .28-.15.44-.38.42a2.7 2.7 0 0 1-1.71-.49c.5.07 1-.22 1.48 0 .18.06.23-.16.3-.31.2-.49.26-.52.84-.51a1.27 1.27 0 0 0 .87.75 1.82 1.82 0 0 1 .45.29 1.23 1.23 0 0 0 .88.32l.48.41.11-.09a1.47 1.47 0 0 0-.14-.28z" class="cls-27"/><path d="M29.32 37.78a5 5 0 0 0 .49 2l-.7.14a.12.12 0 0 1 0-.08c-.05-.17-.09-.35-.16-.62a.48.48 0 0 0 0 .63 1.1 1.1 0 0 1 0 .18l-.26.06h-.12V40l-.57-.84-.63-.63c.38-.32.11-.68 0-1h.34l.17-.41z" class="cls-21"/><path d="M27.05 43.6c-.15.17-.32.34-.46.51a4.71 4.71 0 0 0-.27.45 4 4 0 0 0 1.46-.47 2.62 2.62 0 0 1 0 .27c-.09.06-.22.09-.26.18-.14.35-.49.37-.77.5a.38.38 0 0 1-.51-.17 2.57 2.57 0 0 1-.15-.29h-.43c0-.17.19-.41-.17-.43a1 1 0 0 0 0-.17 2.94 2.94 0 0 0 .58-.59c.21-.39.37-.78.84-.91 0 0 .05-.09.07-.13a.31.31 0 0 0 .3-.33v-.22c.42-.1.6-.62 1.08-.64 0 0 .06-.12.1-.17s.16-.2.23-.29l.31.3-1 .75c-.07 0-.17.09-.21.15-.23.46-.46.93-.68 1.39a.85.85 0 0 0-.06.31z" class="cls-11"/><path d="M35.28 43.28h.08l.11-.1.23-.2.52-.12c.36.18.32.55.42.86h-.19l-.2-.53c-.1 0-.25 0-.31.09s-.45.41-.5.65a1.91 1.91 0 0 0 .23.79.9.9 0 0 0 0 .16c.1.18.21.16.33 0l.32.61v.15a1.21 1.21 0 0 1-.86-.37.72.72 0 0 0-.35-.22c-.65-.12-.89-.65-1.17-1.13.11-.46.12-.46.55-.33s.51.15.79-.31z" class="cls-14"/><path d="M31.59 37.75h.1a.65.65 0 0 0 .55.53v.54l-2.8-1.42a.51.51 0 0 0-.33-.52l.1-.44 1.63.87.24.51z" class="cls-11"/><path d="M35.28 43.28c-.24.46-.24.46-.77.31s-.44-.13-.55.33c-.21-.27-.43-.52-.62-.8s-.53-.83-.79-1.24c.41 0 .78.06.9.55a.35.35 0 0 0 .19.17c.28.09.57.16.85.24h.1c.11.36.48.27.69.44z" class="cls-4"/><path d="M36.46 43.7h.19a2.35 2.35 0 0 1 .41 1 4.21 4.21 0 0 0 .42.78c.06.12.14.33.1.36a.55.55 0 0 1-.41.13 1.22 1.22 0 0 1-.4-.22l.32-.17a1.55 1.55 0 0 1-.83-1 .24.24 0 0 0-.34-.16c0-.15.06-.22.21-.23s.32-.26.33-.49zm-4.22-4.86v-.54l.57.23.83.31c0 .33 0 .33.45.3h.08l.16.25c.17.31.61.48.48.94a.3.3 0 0 1-.33-.2c-.12-.25-.2-.54-.49-.68-.09 0-.21-.15-.28-.13-.28.08-.48 0-.7-.33v.37z" class="cls-27"/><path d="M29.21 36.46l-.1.44a.51.51 0 0 1 .33.52c-.21-.09-.41-.2-.62-.28l-.91-.35-.11-.09c.19-.52.16-.59-.33-.64l-.64-.06a9.36 9.36 0 0 1 1.3.08 7.15 7.15 0 0 1 1.08.38z" class="cls-7"/><path d="M34.82 40.35c.13-.46-.31-.63-.48-.94l-.16-.25a1.59 1.59 0 0 1 1.21 1c.14.38.27.76.41 1.15-.23-.24-.45-.48-.69-.71a1.17 1.17 0 0 0-.27-.15z" class="cls-4"/><path d="M28.69 40.66c-.07.09-.16.19-.23.29s-.06.17-.1.17c-.48 0-.66.54-1.08.64a.42.42 0 0 1 0-.2 2.63 2.63 0 0 0 .79-1.56s.07-.07.12-.1l.21.11.16.11z" class="cls-21"/><path d="M35.92 44.37a.24.24 0 0 1 .34.16 1.55 1.55 0 0 0 .83 1l-.32.17h-.17l-.24-.21-.36-.61c-.15-.14-.09-.33-.08-.51z" class="cls-12"/><path d="M33.64 38.84l-.83-.31-.57-.23a.65.65 0 0 1-.55-.53 7.74 7.74 0 0 1 .88.37c.37.21.72.46 1.07.7z" class="cls-4"/><path d="M25.5 37h-.3a2.07 2.07 0 0 1 .22-.35 8.73 8.73 0 0 1 .73-.61 1.12 1.12 0 0 1 .38-.07l-.55.55z" class="cls-7"/><path d="M31.59 37.75l-.51.09-.24-.51z" class="cls-4"/><path d="M28.92 39.85a.48.48 0 0 1 0-.63c.07.27.11.45.16.62z" class="cls-5"/><path d="M25 37.2a.43.43 0 0 1-.54.44z" class="cls-18"/><path d="M34.1 39.14c-.41 0-.41 0-.45-.3z" class="cls-4"/><path d="M37.86 44.89l.34.12-.16.33z" class="cls-27"/><path d="M28.68 40.09l.26-.06v.36h-.09z" class="cls-5"/><path d="M36.36 45.49l.24.21-.26-.06z" class="cls-27"/><path d="M25.2 37h.23c0 .19-.1.27-.24.06-.02-.06-.02-.06.01-.06z" class="cls-18"/><path d="M28.69 30c.29.26.19.59.28.91-.35-.19-.42-.45-.28-.91z" class="cls-7"/><path d="M33.75 32.47c-.31 0-.59-.29-.92-.12a1.3 1.3 0 0 0-.34.28c-.14.16-.26.34-.42.56l.17.35h-.66l-.11-.23c0-.21-.07-.42-.11-.64a1.12 1.12 0 0 1 0-.41c.08-.2.21-.38.5-.27.13 0 .28.08.36-.15l-.35-.26a7 7 0 0 1 2 .66l-.09.22z" class="cls-13"/><path d="M30.54 23.3a.09.09 0 0 1 .05.09z" class="cls-10"/><path d="M45.33 36.81l-.1.11z" class="cls-12"/><path d="M36.88 55.37a.8.8 0 0 1-.2-.15 17.82 17.82 0 0 0-1-1.55c-.21-.25-.55-.38-.72-.69s-.39-.58-.59-.89a2.53 2.53 0 0 0-.72 1.47c-.17.63-.13.63-.77.74a4 4 0 0 0-1.59.59h-.2c-.1 0 0-.22.06-.28.17-.23 0-.38-.14-.5a.43.43 0 0 0-.57.11c-.08.15-.08.37-.38.35-.11-.3-.22-.61-.61-.7-.08 0-.11-.21-.18-.31-.16-.28-.39-.41-.55-.33s-.25.36 0 .62.24.88.55 1.26a.73.73 0 0 1 .14.71.39.39 0 0 0 .11.27 5.51 5.51 0 0 0 .41.43c.22.19.16.36 0 .56a3.2 3.2 0 0 1-1.51-1.67h-.92v-.54a1.56 1.56 0 0 0 .28-.16c.33-.23.37-.51 0-.74a2.07 2.07 0 0 1-.78-1.24c0-.1 0-.24-.11-.29-.32-.22-.23-.49-.12-.76s.39-.8.59-1.2c.06-.14.16-.29-.12-.28a.9.9 0 0 1-.54-1.05 7.55 7.55 0 0 0 0-1.26c0-.14-.13-.28-.21-.42l.17-.31c.2 0 .18-.18.18-.33h.21a1.56 1.56 0 0 0 1.41.3 2 2 0 0 1 1.14.51 1.79 1.79 0 0 0 .24.12 1.82 1.82 0 0 1 .94 1c.26.74 1.08.78 1.52 1.28h.21c.58 0 1 .38 1.52.57a.58.58 0 0 1 .38.54.58.58 0 0 0 .11.4 4.71 4.71 0 0 0 .78.54 2.88 2.88 0 0 1 1.42 1.05.68.68 0 0 0 .12.12.93.93 0 0 1 .26.84c-.1.46-.1.9-.22 1.27z" class="cls-28"/><path d="M37 60.44c-.22 0-.21-.17-.21-.32l-.08-.52c.19-.16.62-.71.54-.94s.21-.76-.16-1.11l.49-.14s0-.07.06-.1 0-.28 0-.43l.46-.28a3.87 3.87 0 0 0 .11-.68 7.31 7.31 0 0 0-.08-1.05 5.12 5.12 0 0 0-.19-.67c0-.09-.09-.19-.07-.26.19-.43 0-.84 0-1.27a.64.64 0 0 0-.31-.57c-.5-.39-1-.85-1.43-1.27l-.13-.1c-.44-.23-.88-.45-1.31-.69-.16-.09-.29-.19-.49-.11s-.16 0-.24-.06c-.28-.11-.57-.22-.84-.34a1.1 1.1 0 0 1-.31-.2l-1.31-1.45c0-.14 0-.29-.21-.26-.39 0-.76-.06-.87-.54a.2.2 0 0 0-.16-.12 1.8 1.8 0 0 1-.93-.47 1.18 1.18 0 0 0-1.07-.66c0-.26.15-.33.34-.4.4-.14.79-.3 1.17-.46.06 0 .1-.11.14-.16a.53.53 0 0 1 .89 0c.12.13.18.32.3.44.3.28.55.68 1 .56.25.15.45.29.66.41a2.75 2.75 0 0 1 .82.47 3.57 3.57 0 0 0 .55.43 2.58 2.58 0 0 0 .66.4 2 2 0 0 1 .67.33c.26.24.58.4.84.64a2 2 0 0 1 .75.94.5.5 0 0 0 .52.4 6.41 6.41 0 0 1 1.15 2.43c.06.29.13.58.2.88a3.73 3.73 0 0 1 .13.73 10.62 10.62 0 0 1-.18 2.7 2.44 2.44 0 0 0 0 .66c.37.2.38-.12.51-.26a.58.58 0 0 1-.4.87 3.09 3.09 0 0 1-.43 0c0-.21-.13-.37-.37-.39l-.1.05c-.42.22-.26.67-.38 1a.66.66 0 0 0 .19.74 1.21 1.21 0 0 0-.11.3c0 .35-.1.58-.51.59-.12.02-.2.21-.27.31z" class="cls-12"/><path d="M37.55 49.84a.5.5 0 0 1-.52-.4 2 2 0 0 0-.75-.94c-.26-.24-.58-.4-.84-.64a2 2 0 0 0-.67-.33 2.58 2.58 0 0 1-.66-.4 3.57 3.57 0 0 1-.55-.43 2.75 2.75 0 0 0-.82-.47c-.21-.12-.41-.26-.66-.41-.45.12-.7-.28-1-.56-.12-.12-.18-.31-.3-.44a.53.53 0 0 0-.89 0s-.08.13-.14.16c-.38.16-.77.32-1.17.46-.19.07-.37.14-.34.4l-.41-.17v.42l-.58.23-.57-.06h-.1a7.27 7.27 0 0 1-.79-.78 1.25 1.25 0 0 1-.11-.56v-.32h.43a2.57 2.57 0 0 0 .15.29.38.38 0 0 0 .51.17c.28-.13.63-.15.77-.5 0-.09.17-.12.26-.18h.63l-.42.51-.21.23a.75.75 0 0 1-.07.12l.06-.13.23-.2 1.07-.53 1.36-.5c.2.3.37.61.78.7.11 0 .19.19.28.29a1 1 0 0 0 1.1.46 1.63 1.63 0 0 0 .21.34 4.15 4.15 0 0 0 1.33 1 1.52 1.52 0 0 1 .53.45 1.35 1.35 0 0 0 .75.38 5.68 5.68 0 0 1 .7.22.83.83 0 0 1 .28.28 3.25 3.25 0 0 0 .89 1c.1.28.17.56.25.84zm-10.63-4l.11.07c.33-.24.33-.24.25-.59z" class="cls-7"/><path d="M36.88 55.37c.07-.4.15-.81.21-1.21a.93.93 0 0 0-.26-.84.68.68 0 0 1-.12-.12 2.88 2.88 0 0 0-1.42-1.05 4.71 4.71 0 0 1-.78-.54.58.58 0 0 1-.11-.4.58.58 0 0 0-.38-.54c-.51-.19-.94-.58-1.52-.57h-.21c-.44-.5-1.26-.54-1.52-1.28a1.82 1.82 0 0 0-.94-1 1.79 1.79 0 0 1-.24-.12 2 2 0 0 0-1.14-.51.89.89 0 0 1 1.12 0 8.4 8.4 0 0 0 1.34.74c.09.69.69 1.07 1.24 1.48a4.28 4.28 0 0 0 2 .78.63.63 0 0 1 .32.17 7.08 7.08 0 0 0 1.81 1.21 1.8 1.8 0 0 1 .39.34c.21.21.33.54.73.43.23.87-.25 1.76.3 2.54l-.27.29c.41.27.41.27.25.83-.22 0-.3-.16-.37-.32s-.22-.31-.43-.31z" class="cls-9"/><path d="M37.64 56.88v.43c0 .14 0 .06-.06.1l-.49.14c.37.35 0 .74.16 1.11s-.35.78-.54.94l.08.52-.64.13c-.37-.17-.49-.13-.54.21a2.81 2.81 0 0 0 0 .41l-.33-.28-1.39.28.37-.54-.39-.27.71-.1c0-.21 0-.46.23-.57s.51 0 .7.29c.2-.21.43-.31.36-.67 0-.19.14-.42.24-.67a.92.92 0 0 0 .64-.51 4.65 4.65 0 0 1 .7-.85z" class="cls-16"/><path d="M27.91 36.79l.91.35c.21.08.41.19.62.28l2.8 1.42.75.54.09.27h-.28c-.52-.31-1-.65-1.53-1a6.66 6.66 0 0 0-.72-.33l-1.23-.58-1.41-.7-.17.41h-.34c.09.36.36.72 0 1h-.1l-.45-.12c0-.08.05-.19.1-.24a.76.76 0 0 0 .2-.79c-.09-.41 0-.52.43-.47.12.09.3.26.33-.04zm-2.44 7.15a1 1 0 0 1 0 .17l.06.45c-.58-.09-.79-.27-.74-.69a.85.85 0 0 1 .19-.42 1 1 0 0 0 .3-.86 1 1 0 0 1 .32-1 .79.79 0 0 0 .23-1.13 1 1 0 0 1-.07-.25c.17.08.34.16.5.25l.37.18c0 .21 0 .54-.12.6-.34.18-.3.5-.41.77a1.4 1.4 0 0 1-.17.37 1.84 1.84 0 0 0-.46 1.56z" class="cls-13"/><path d="M26.64 40.68l-.37-.18c-.16-.09-.33-.17-.5-.25l-.23-.25c0-.22 0-.4.35-.37s.58-.36.51-.7h.34l-.23-.2c0-.25.1-.34.32-.33l.45.12a3.18 3.18 0 0 0 .07 1.37z" class="cls-10"/><path d="M27.81 46.08v-.42l.41.17a1.18 1.18 0 0 1 1.07.66 2.92 2.92 0 0 1-1.48-.41z" class="cls-16"/><path d="M26.4 39c.07.34-.19.73-.51.7s-.34.15-.35.37c-.26-.21-.26-.46 0-.64s.58-.33.86-.43zm1.07-2.94c.49 0 .52.12.33.64-.22 0-.33-.1-.32-.32a1.69 1.69 0 0 0-.01-.32z" class="cls-13"/><path d="M25.54 44.56l-.06-.45c.36 0 .19.26.17.43z" class="cls-19"/><path d="M31.27 47.62c.22 0 .21.12.21.26-.22.04-.21-.11-.21-.26z" class="cls-16"/><path d="M26.51 38.74l.23.2h-.34zm14.04 7.55v-.42c0-.17-.06-.41.23-.44l.31.22.12.32v.21a2 2 0 0 0 .42 1.18c.21.24.12.52-.23.7a2 2 0 0 1 .44.21c.12.09.32.27.29.33-.16.36.08.63.14.93 0 .12.06.24.08.37l-.3.38c-.33-.09-.47-.21-.41-.48a1.67 1.67 0 0 0-.4-1.43 1.35 1.35 0 0 1-.25-.51 3.94 3.94 0 0 1-.44-1.57z" class="cls-13"/><path d="M41.21 46l-.12-.32s.09-.09.09-.13a1.51 1.51 0 0 0-.36-1.23.65.65 0 0 1-.17-.48 7.94 7.94 0 0 0 0-.85c-.07-.49.06-.68.59-.76a.39.39 0 0 1 0 .15 1.82 1.82 0 0 0 .41 1.35l-.3.33c.06.25.15.5.19.76s0 .49 0 .77z" class="cls-16"/><path d="M41.2 42.2c-.53.08-.66.27-.59.76a7.94 7.94 0 0 1 0 .85 10.35 10.35 0 0 1-1.26-1.62v-.21a8.64 8.64 0 0 1 2-.16c-.07.12-.11.25-.15.38z" class="cls-13"/><path d="M44 47.81c0-.05-.08-.09-.07-.12a.19.19 0 0 1 .1-.08.63.63 0 0 1 .11.12z" class="cls-9"/><path d="M35 63.68l.22-.21z" class="cls-13"/><path d="M37.55 49.84c-.08-.28-.15-.56-.22-.83h.3c.28.45.57.9.82 1.36s.65 1.16.91 1.76a4.45 4.45 0 0 1 .32 1.34 7.73 7.73 0 0 1-.22 2.87 4.37 4.37 0 0 0-.11.63c-.13.14-.14.46-.51.26a2.44 2.44 0 0 1 0-.66 10.62 10.62 0 0 0 .18-2.7 3.73 3.73 0 0 0-.13-.73c-.07-.3-.14-.59-.2-.88a6.41 6.41 0 0 0-1.14-2.42zm1.66 5.57h.16v-.57a4.65 4.65 0 0 1 .05-.75 2.22 2.22 0 0 0-.28-1.34v2.38c.02.09.05.18.07.28z" class="cls-18"/><path d="M37.86 59.26a.66.66 0 0 1-.19-.74c.12-.33 0-.78.38-1l.1-.05c.24 0 .33.18.37.39v.47a1 1 0 0 1-.66.93z" class="cls-14"/><path d="M33 62.27l.12-.08z" class="cls-13"/><path d="M35.59 60.87a2.81 2.81 0 0 1 0-.41c0-.34.17-.38.54-.21v.59z" class="cls-12"/><path d="M27.19 50.2c.28 0 .18.14.12.28-.2.4-.4.8-.59 1.2 0-.11-.09-.24-.06-.33.16-.35.34-.77.53-1.15z" class="cls-7"/><path d="M25.54 48.34l.43-.41c.03.3-.12.44-.43.41z" class="cls-16"/><path d="M25.76 51.7l.08-.23c.16.15.08.2-.08.23z" class="cls-18"/><path d="M37.54 42.19c-.47 0-.65-.19-.48-.57.09-.17.21-.33.35-.54l.56.26c-.14.28-.29.56-.43.85z" class="cls-11"/><path d="M37.54 42.19c.14-.29.29-.57.43-.85l.34-.12c0 .37-.28.59-.48.85l-.2.12z" class="cls-22"/><path d="M39.36 42v.21a10.35 10.35 0 0 0 1.26 1.62.65.65 0 0 0 .17.48 1.51 1.51 0 0 1 .36 1.23s-.06.09-.09.13l-.31-.22c-.14-.18-.29-.36-.43-.55s0-.13 0-.19l-.18-.33a.47.47 0 0 0-.42-.43v-.2a.72.72 0 0 0-.07-.25l-1-1.48.14-.36z" class="cls-12"/><path d="M33.75 32.47c.16.1.16.1.08.35l-.08-.35z" class="cls-13"/><path d="M30.48 43.89l-1.36.5c.06-.11.1-.28.2-.33.52-.25 1.06-.48 1.59-.7a6.92 6.92 0 0 1 .76-.28c.13 0 .28-.06.35.18z" class="cls-3"/><path d="M34.69 40.71l.74 1a1.47 1.47 0 0 1 .14.28l-.11.09-.46-.45a7.52 7.52 0 0 1-.5-.62c-.17-.24-.06-.33.19-.3z" class="cls-13"/><path d="M40.35 44.88c.14.19.29.37.43.55-.29 0-.19.27-.23.44-.22 0-.35-.08-.32-.31s.08-.45.12-.68zm-.65-.97a.47.47 0 0 1 .42.43.4.4 0 0 1-.42-.43zm.43.45l.18.33c-.19-.04-.2-.18-.18-.33z" class="cls-7"/><path d="M35.71 43l-.23.2c0-.2.08-.2.23-.2zm-.24.17l-.11.1z" class="cls-4"/><path d="M26.64 40.68l.71-.78a3.18 3.18 0 0 1-.07-1.37h.1l.63.63.18.76c-.05 0-.12.06-.12.1a2.63 2.63 0 0 1-.74 1.54.42.42 0 0 0 0 .2v.22h-.47l.13.33s0 .13-.07.13c-.47.13-.63.52-.84.91a2.94 2.94 0 0 1-.58.59 1.84 1.84 0 0 1 .47-1.52 1.4 1.4 0 0 0 .17-.37c.11-.27.07-.59.41-.77.08-.06.05-.39.09-.6z" class="cls-19"/><path d="M28.19 39.92l-.19-.76c.19.29.38.57.56.86h-.16z" class="cls-4"/><path d="M28.4 40h.17v.12z" class="cls-2"/><path d="M27 42.31l-.17-.31h.43a.31.31 0 0 1-.26.31z" class="cls-21"/><path d="M35.92 44.37c0 .18-.07.37.12.51-.12.14-.23.16-.33 0a.9.9 0 0 1 0-.16 1.91 1.91 0 0 1-.23-.79c0-.24.31-.45.5-.65s.21-.06.31-.09l.2.53c0 .23-.05.42-.33.44s-.25.06-.24.21z" class="cls-3"/><path d="M26.92 45.87l.36-.52c.08.35.08.35-.25.59z" class="cls-4"/><path d="M28.05 44.92l-.23.2.21-.23z" class="cls-14"/><path d="M27.82 45.12l-.06.13a.75.75 0 0 0 .07-.12z" class="cls-14"/><path d="M39.21 55.41c0-.1-.05-.19-.06-.29v-2.38a2.22 2.22 0 0 1 .28 1.34 4.65 4.65 0 0 0-.05.75v.57z" class="cls-12"/><path d="M26.83 42h.05z" class="cls-21"/></g></svg>